<svg width="32" height="40" viewBox="0 0 32 40" fill="none" xmlns="http://www.w3.org/2000/svg">
  <path d="M16 0C7.16 0 0 7.16 0 16C0 24 10 36 14.4 39.2C15.3 39.8 16.7 39.8 17.6 39.2C22 36 32 24 32 16C32 7.16 24.84 0 16 0Z" fill="#846148"/>
  <circle cx="16" cy="16" r="9" fill="#FFF8F0"/>
  <rect x="10" y="14" width="10" height="8" rx="1" fill="#846148"/>
  <path d="M20 15.5C21.5 15.5 22.5 16.5 22.5 18C22.5 19.5 21.5 20.5 20 20.5" stroke="#846148" stroke-width="1.5" fill="none" stroke-linecap="round"/>
  <path d="M12.5 13C12.5 12 13 11 12.5 10" stroke="#846148" stroke-width="1" stroke-linecap="round" opacity="0.7"/>
  <path d="M15 12.5C15 11.5 15.5 10.5 15 9.5" stroke="#846148" stroke-width="1" stroke-linecap="round" opacity="0.7"/>
  <path d="M17.5 13C17.5 12 18 11 17.5 10" stroke="#846148" stroke-width="1" stroke-linecap="round" opacity="0.7"/>
</svg>
