<svg width="4096" height="4096" viewBox="0 0 4096 4096" fill="none" xmlns="http://www.w3.org/2000/svg">
<g clip-path="url(#clip0_4_44)">
<path d="M1751.5 3185.9C1704.35 3182.7 1630.92 3173.33 1607 3167.45C1603.97 3166.71 1592.5 3164.01 1581.5 3161.45C1540.21 3151.84 1524.16 3147.87 1512.5 3144.35C1499.19 3140.34 1481.85 3134.75 1478 3133.23C1476.62 3132.68 1472.35 3131.24 1468.5 3130.02C1464.65 3128.81 1460.15 3127.22 1458.5 3126.51C1451.8 3123.6 1444.97 3120.97 1435 3117.46C1429.22 3115.43 1423.15 3113.16 1421.5 3112.42C1419.85 3111.68 1413.55 3109.08 1407.5 3106.65C1365.45 3089.73 1356.07 3085.57 1330 3072.24C1307.05 3060.51 1293.23 3052.99 1267 3037.97C1255.73 3031.51 1244.7 3025.25 1242.5 3024.05C1236.43 3020.74 1231.75 3017.81 1227.23 3014.5C1224.98 3012.85 1220.83 3010.15 1218 3008.5C1206.61 3001.85 1152.57 2962.65 1134 2947.56C1129.88 2944.21 1123.35 2939.02 1119.5 2936.03C1088.34 2911.82 1030.29 2856.02 993 2814.44C978.582 2798.36 929.487 2736.83 922 2725.45C916.825 2717.59 913.869 2713.19 912.295 2711.01C908.85 2706.24 881.456 2662.99 876.047 2653.78C868.776 2641.41 857.996 2622.79 850.987 2610.5C844.182 2598.57 828.88 2567.43 821.26 2550C810.886 2526.27 808.828 2521.41 798.822 2497C793.298 2483.52 787.528 2468.45 786 2463.5C784.472 2458.55 781.638 2450.22 779.702 2445C777.766 2439.77 775.202 2431.52 774.004 2426.66C770.625 2412.95 765.977 2399.81 763.892 2398.07C762.58 2396.98 761.874 2394.81 761.591 2391C761.367 2387.97 758.667 2375.55 755.592 2363.39C752.517 2351.23 750 2340.33 750 2339.18C750 2338.02 749.146 2336.27 748.102 2335.29C746.633 2333.9 746.084 2331.58 745.668 2325C745.373 2320.32 744.452 2313.12 743.623 2309C740.405 2292.99 738.839 2284.09 737.381 2273.5C736.548 2267.45 735.432 2259.35 734.902 2255.5C731.881 2233.57 730.132 2215.02 727.453 2176.5C726.31 2160.07 726.838 2087.17 728.372 2049.5C730.598 1994.83 732.146 1979.19 736.95 1962.85C737.977 1959.36 740 1952.45 741.445 1947.5C745.807 1932.56 757.438 1910.39 768.202 1896.51C795.236 1861.64 828.201 1837.92 867.524 1825.05C891.176 1817.32 897.188 1816.78 966.5 1816.26C998.4 1816.03 1024.24 1816.09 1023.92 1816.41C1023.61 1816.72 1004.71 1817.02 981.925 1817.06C896.271 1817.21 877.312 1820.01 841.5 1837.79C818.888 1849.02 803.985 1859.96 786.404 1878.24C761.392 1904.25 746.936 1930.96 737.02 1969.5C732.693 1986.32 731.757 1999.17 728.897 2081C727.055 2133.7 728.954 2190.23 734.026 2233.61C739.131 2277.27 743.719 2302.78 756.036 2356C763.14 2386.69 786.421 2461.78 796.034 2485C798.652 2491.32 804.412 2505.27 808.833 2516C821.866 2547.61 829.377 2564.06 842.392 2589.5C861.412 2626.67 891.992 2677.98 914.807 2711C934.262 2739.16 970.596 2786.16 989.398 2807.5C1029.8 2853.35 1082.62 2904.06 1128 2940.59C1191.76 2991.9 1253.63 3031.51 1330.31 3070.11C1368.6 3089.38 1400.41 3102.98 1449 3120.86C1498.03 3138.9 1551.93 3154.11 1605 3164.89C1746.92 3193.71 1896.3 3192.48 2031.84 3161.36C2040.27 3159.43 2047.38 3158.05 2047.63 3158.3C2048.28 3158.94 2017.43 3166.27 1999 3169.84C1953.54 3178.66 1914.99 3183.34 1866 3186C1844.56 3187.16 1769.1 3187.1 1751.5 3185.9Z" fill="#866B5B" stroke="#866B5B"/>
<path d="M2032 1616.93C2006.59 1614.18 1985.99 1608.07 1961.5 1596.04C1936.41 1583.71 1911.81 1562.59 1893.91 1538C1880.31 1519.32 1866.66 1488.65 1860.53 1463C1858.5 1454.47 1855.92 1445.62 1854.82 1443.33C1852.83 1439.2 1852.81 1437.42 1852.82 1270.83C1852.83 1125.44 1853.03 1101.89 1854.3 1098C1855.11 1095.52 1856.3 1089.9 1856.95 1085.5C1858.86 1072.59 1865.65 1046.23 1869.58 1036.5C1871.58 1031.55 1874.53 1024.18 1876.13 1020.13C1877.73 1016.08 1879.94 1011.58 1881.03 1010.13C1882.13 1008.68 1886.73 1001.9 1891.26 995.059C1908.9 968.416 1939.27 941.902 1969.5 926.747C1982.44 920.262 2003.91 913.641 2020 911.174C2036.88 908.586 2048 907.619 2048 908.738C2048 909.21 2042.26 910.133 2035.25 910.789C2010.69 913.086 1990.98 918.546 1969.5 929.006C1948.57 939.198 1934.71 949.194 1915.66 967.844C1884.28 998.549 1864.81 1040.3 1857.29 1093C1855.63 1104.57 1855.5 1117.09 1855.5 1261.5C1855.5 1422.79 1855.58 1426.46 1859.6 1450.5C1866.97 1494.62 1886.77 1532.27 1919.27 1563.95C1950.81 1594.69 1992.01 1612.67 2037.68 1615.63C2043.35 1615.99 2048 1616.68 2048 1617.15C2048 1618.14 2042.52 1618.07 2032 1616.93Z" fill="#866B5B" stroke="#866B5B"/>
<path d="M0 2048V0H2048H4096V2048V4096H2048H0V2048ZM2495.8 3662.24C2494.84 3660.65 2493.09 3659.37 2491.61 3659.19C2489.51 3658.93 2488.81 3659.51 2487.52 3662.61C2486.41 3665.26 2486.27 3666.67 2487.02 3667.42C2487.54 3666.33 2494.14 3667.7 2495.45 3667C2497.35 3665.09 2497.37 3664.85 2495.8 3662.24ZM2118.69 3651.35C2119.53 3649.17 2116.33 3646.88 2108.01 3648.23C2105.43 3651.42 2107.13 3653 2113.15 3653C2116.79 3653 2118.23 3652.57 2118.69 3651.35ZM2787.73 3555.73C2788.26 3551.01 2786.81 3547 2784.58 3547C2782.79 3547 2781.97 3552.83 2783.32 3556C2784.35 3558.41 2784.64 3559.4 2784.89 3561.45C2785.18 3563.9 2787.28 3559.68 2787.73 3555.73ZM2334.67 3450.12C2335.09 3447.31 2333.24 3444.69 2331.34 3445.42C2336.6 3435.88 2319.17 3448.24 2316.44 3448.57C2318.99 3450.45 2322.68 3450.39 2323.76 3448.46C2327.62 3446.92 2327.6 3453.36 2328.5 3452.02C2331.81 3453.47 2334.28 3452.71 2334.67 3450.12ZM2339.46 3437.65C2341.34 3436.28 2340.85 3434 2338.68 3434C2337.24 3434 2334.86 3437.53 2335.73 3438.39C2336.63 3439.3 2337.42 3439.14 2339.46 3437.65ZM1774.38 3407.58C1774.23 3405.09 1774.54 3402.79 1775.06 3402.47C1776.62 3401.5 1776.14 3400.32 1771.08 3402.45C1769.49 3403.43 1769.77 3407.72 1771.61 3410.53C1773.81 3413.89 1774.7 3412.95 1774.38 3407.58ZM1478.79 3394.99C1478.95 3393.62 1479.57 3391.52 1480.17 3390.32C1480.77 3389.12 1480.99 3387.43 1480.66 3386.57C1480 3384.83 1476.46 3384.44 1475.5 3386C1474.37 3387.83 1472.13 3387.03 1470.81 3384.32C1470.09 3382.85 1468.94 3381.47 1468.26 3381.24C1466.39 3380.64 1464.87 3385.72 1465.2 3391.44L1465.5 3396.5L1470.5 3397.1C1477.68 3397.97 1478.47 3397.77 1478.79 3394.99ZM1784.79 3396.21C1784.63 3395.4 1785.84 3393.25 1787.48 3391.41L1790.46 3388.08L1792.57 3390.07C1795.86 3393.16 1797.89 3391.71 1797.31 3386.68C1796.58 3380.28 1796.33 3379.88 1793.52 3380.58C1789.61 3382.9 1790.52 3374.67 1791.69 3376C1793.81 3376 1796 3374.21 1796 3372.47C1796 3370.34 1789.92 3372.09 1789.01 3374.49C1788.54 3375.72 1787.43 3377.01 1786.54 3377.35C1785.25 3377.84 1784.98 3379.19 1785.19 3383.9C1785.41 3388.57 1785.06 3390.27 1783.58 3391.92C1782.54 3393.06 1781.11 3394 1780.4 3394C1778.86 3394 1777.68 3395.67 1778.4 3396.83C1778.68 3397.29 1780.3 3397.67 1782 3397.67C1784.17 3397.67 1785 3397.23 1784.79 3396.21ZM2442 3375.5C2442.69 3374.68 2443.66 3374 2449.75 3370.93L2447.88 3367.26C2444.96 3361.54 2443.35 3361.18 2439.19 3365.34C2436.06 3368.47 2435.76 3369.2 2436.72 3371.21C2437.32 3372.47 2438.07 3374.29 2438.38 3375.25C2439.06 3377.4 2440.35 3377.49 2442 3375.5ZM1866 3186C1927.31 3182.68 1988.94 3173.83 2035.5 3161.68C2042.65 3159.82 2058.34 3155.74 2070.38 3152.63C2098.3 3145.41 2109.73 3141.95 2140.5 3131.39C2224.43 3102.6 2281.95 3075.97 2358.79 3030.32C2456.35 2972.37 2541.76 2901.59 2621.02 2813C2681.74 2745.12 2737.62 2661.94 2781.56 2574C2792.48 2552.15 2811.65 2509.46 2819.63 2489.25C2822.29 2482.51 2824.81 2477 2825.24 2477C2825.67 2477 2832.43 2480.74 2840.26 2485.31C2877.92 2507.3 2903.33 2518.06 2939.5 2527.31C2968.76 2534.8 2993.09 2538 3020.71 2538C3041.82 2537.99 3056.65 2536.86 3075 2533.85C3088.17 2531.69 3125.53 2522.61 3127.4 2521.12C3128 2520.64 3131.2 2519.47 3134.5 2518.53C3158.07 2511.81 3195.2 2491.98 3223.71 2470.88C3236 2461.78 3258.58 2442.15 3268.61 2431.84C3288.24 2411.67 3309.28 2382.72 3325.21 2354C3343.99 2320.13 3358.9 2271.45 3365.64 2222C3368.03 2204.43 3368.05 2155.15 3365.67 2135.54C3356.82 2062.55 3330.38 1999.73 3284.65 1943C3257.79 1909.68 3224.12 1881.97 3182.22 1858.68C3163.82 1848.46 3152.74 1843.5 3131.22 1835.88C3102.93 1825.86 3077.38 1820.34 3048.6 1818.03C3033.46 1816.82 2196.21 1816.58 2194.31 1817.79C2193.42 1818.35 2193.02 1833.03 2192.74 1876.02L2192.36 1933.5L2189.71 1945.57C2177.77 1999.91 2144.8 2041.94 2096.24 2064.69C2071.14 2076.45 2049.02 2081.73 2021 2082.67C1987.61 2083.79 1957.06 2076.94 1926.14 2061.41C1910.07 2053.33 1898.18 2044.95 1885.12 2032.5C1862.19 2010.62 1844.26 1979.03 1836.31 1946.5L1833.62 1935.5L1833.06 1876.5L1832.5 1817.5H1802.5H1772.5L1771.95 1874C1771.42 1927.59 1771.28 1931.06 1769.14 1941.38C1766 1956.48 1761.09 1970.92 1754.17 1985.39C1744.94 2004.68 1735.28 2017.84 1718.93 2033.4C1698.86 2052.5 1681.05 2063.02 1653 2072.35C1604.53 2088.48 1553.96 2085.89 1508.5 2064.97C1466.72 2045.75 1434.93 2010.54 1420.97 1968.03C1412.63 1942.63 1412.74 1943.72 1412.08 1877.33C1411.76 1844.79 1411.28 1817.95 1411 1817.7C1410.72 1817.44 1297.77 1817.09 1160 1816.93C873.764 1816.58 895.261 1815.98 867.527 1825.05C828.201 1837.92 795.237 1861.63 768.202 1896.51C757.438 1910.39 745.807 1932.56 741.445 1947.5C740 1952.45 737.977 1959.36 736.95 1962.85C732.146 1979.19 730.598 1994.83 728.372 2049.5C726.838 2087.17 726.31 2160.07 727.453 2176.5C730.132 2215.02 731.881 2233.57 734.902 2255.5C735.432 2259.35 736.548 2267.45 737.381 2273.5C738.839 2284.09 740.405 2292.99 743.623 2309C744.452 2313.12 745.373 2320.32 745.668 2325C746.084 2331.58 746.633 2333.9 748.102 2335.29C749.146 2336.27 750 2338.02 750 2339.18C750 2340.33 752.517 2351.23 755.592 2363.39C758.667 2375.55 761.367 2387.97 761.591 2391C761.874 2394.81 762.58 2396.98 763.892 2398.07C765.977 2399.81 770.625 2412.95 774.004 2426.66C775.202 2431.52 777.766 2439.78 779.702 2445C781.638 2450.22 784.472 2458.55 786 2463.5C787.528 2468.45 793.298 2483.52 798.822 2497C808.828 2521.41 810.886 2526.27 821.26 2550C828.88 2567.43 844.182 2598.57 850.987 2610.5C857.996 2622.79 868.776 2641.41 876.047 2653.78C881.456 2662.99 908.85 2706.24 912.295 2711.01C913.869 2713.19 916.825 2717.59 922 2725.46C929.487 2736.83 978.582 2798.36 993 2814.44C1030.29 2856.02 1088.34 2911.82 1119.5 2936.03C1123.35 2939.02 1129.88 2944.21 1134 2947.56C1152.57 2962.65 1206.61 3001.85 1218 3008.5C1220.83 3010.15 1224.98 3012.85 1227.23 3014.5C1231.75 3017.81 1236.43 3020.74 1242.5 3024.05C1244.7 3025.25 1255.73 3031.51 1267 3037.97C1293.23 3052.99 1307.05 3060.51 1330 3072.24C1356.07 3085.57 1365.45 3089.73 1407.5 3106.65C1413.55 3109.08 1419.85 3111.68 1421.5 3112.42C1423.15 3113.16 1429.22 3115.43 1435 3117.47C1444.97 3120.97 1451.8 3123.6 1458.5 3126.51C1460.15 3127.22 1464.65 3128.81 1468.5 3130.02C1472.35 3131.24 1476.62 3132.68 1478 3133.23C1481.85 3134.75 1499.19 3140.34 1512.5 3144.35C1524.16 3147.87 1540.21 3151.84 1581.5 3161.45C1592.5 3164.01 1603.97 3166.71 1607 3167.46C1630.92 3173.33 1704.35 3182.7 1751.5 3185.9C1769.1 3187.1 1844.56 3187.16 1866 3186ZM3346.8 2468.26C3346.46 2461.66 3344.3 2460.09 3341.48 2464.39C3339.9 2466.8 3339.95 2467.04 3342.67 2470.45C3344.23 2472.4 3345.86 2474 3346.3 2474C3346.74 2474 3346.97 2471.42 3346.8 2468.26ZM2990.8 1621.25C2990.61 1620.29 2991.33 1618.78 2992.41 1617.89C2994.34 1616.31 2994.33 1616.24 2991.66 1613.57C2990.16 1612.07 2988.39 1611.03 2987.72 1611.25C2985.72 1611.91 2985.62 1618.93 2987.59 1621.1C2989.74 1623.48 2991.26 1623.55 2990.8 1621.25ZM2048 1617.15C2048 1616.68 2054.64 1616.02 2062.75 1615.67C2086.83 1614.63 2110.21 1608.47 2133.5 1597.02C2198.03 1565.29 2239.03 1501.08 2244.94 1422.5C2246.37 1403.5 2246.38 1124.73 2244.95 1109C2240.51 1060.02 2223.09 1014.53 2195.66 980.21C2188.65 971.452 2172.58 956.089 2162.35 948.383C2153.98 942.074 2136.29 931.105 2127.5 926.764C2108.58 917.426 2077.19 910 2056.62 910C2051.21 910 2048 909.604 2048 908.939C2048 907.599 2038.23 908.379 2020 911.174C2003.91 913.641 1982.44 920.262 1969.5 926.747C1939.27 941.902 1908.9 968.416 1891.26 995.059C1886.73 1001.9 1882.13 1008.68 1881.03 1010.13C1879.94 1011.58 1877.73 1016.08 1876.13 1020.13C1874.53 1024.18 1871.58 1031.55 1869.58 1036.5C1865.65 1046.23 1858.86 1072.59 1856.95 1085.5C1856.3 1089.9 1855.11 1095.53 1854.3 1098C1853.03 1101.89 1852.83 1125.44 1852.82 1270.83C1852.81 1437.42 1852.83 1439.21 1854.82 1443.33C1855.92 1445.62 1858.49 1454.48 1860.53 1463C1865.7 1484.64 1874.59 1506.36 1886.3 1526C1892.5 1536.41 1894.52 1539.2 1903.64 1550C1929.53 1580.66 1961.77 1600.72 2003 1611.82C2018.2 1615.92 2048 1619.45 2048 1617.15ZM1586 1613.52C1606.66 1610.09 1628.61 1601.99 1647.17 1590.97C1666.66 1579.39 1693.02 1556.14 1705.5 1539.51C1718.08 1522.74 1730.03 1500.5 1736.12 1482.5C1737.98 1477 1739.74 1472.28 1740.03 1472C1741.04 1471.04 1743.87 1460.44 1745.37 1452C1748.24 1435.88 1749 1421.53 1749 1383.5C1749 1327.82 1747.28 1313.48 1737.27 1285.5C1732.13 1271.15 1726 1258.35 1719.52 1248.4C1694.72 1210.36 1664.96 1183.16 1632.6 1168.97C1616.75 1162.02 1608.93 1159.82 1588.11 1156.44C1569.64 1153.44 1560.56 1152.96 1544 1154.12C1501.47 1157.09 1468.95 1169.81 1438.01 1195.58C1430.12 1202.15 1414 1218.88 1414 1220.5C1414 1220.89 1411.22 1224.42 1407.82 1228.35C1388.72 1250.42 1372.59 1285.57 1366.57 1318.22C1362.06 1342.69 1361.5 1351.17 1361.52 1394C1361.53 1444.21 1362.81 1455.74 1371.08 1480.25C1381.36 1510.74 1395.25 1533.79 1416.8 1556.15C1434.86 1574.88 1451.79 1587.21 1474.21 1597.97C1494.01 1607.48 1508.84 1611.73 1533.5 1614.97C1543.37 1616.27 1574.69 1615.4 1586 1613.52Z" fill="#815A44" stroke="#815A44"/>
<path d="M1470.5 3397.1L1465.5 3396.5L1465.2 3391.44C1464.87 3385.72 1466.39 3380.64 1468.26 3381.24C1468.94 3381.47 1470.09 3382.85 1470.81 3384.32C1472.13 3387.03 1474.37 3387.83 1475.5 3386C1476.47 3384.44 1480 3384.83 1480.66 3386.57C1480.99 3387.43 1480.77 3389.12 1480.17 3390.32C1479.57 3391.52 1478.95 3393.62 1478.79 3394.99C1478.47 3397.77 1477.68 3397.97 1470.5 3397.1Z" fill="#815543" stroke="#815543"/>
<path d="M1771.61 3410.53C1769.77 3407.72 1769.49 3403.44 1773.47 3398.57C1776.14 3400.32 1776.62 3401.5 1775.06 3402.47C1774.54 3402.79 1774.23 3405.09 1774.38 3407.58C1774.7 3412.95 1773.81 3413.89 1771.61 3410.53Z" fill="#815543" stroke="#815543"/>
<path d="M1778.4 3396.83C1777.68 3395.67 1778.86 3394 1780.4 3394C1781.11 3394 1782.54 3393.06 1783.58 3391.91C1785.06 3390.27 1785.41 3388.57 1785.19 3383.9C1784.98 3379.19 1785.25 3377.84 1786.54 3377.35C1787.43 3377.01 1788.54 3375.72 1789.01 3374.49C1789.92 3372.09 1796 3370.34 1796 3372.47C1796 3374.21 1793.81 3376 1791.69 3376C1788.6 3375.86 1792.14 3382.7 1793.52 3380.58C1796.33 3379.88 1796.58 3380.28 1797.31 3386.68C1797.89 3391.71 1795.86 3393.16 1792.57 3390.07L1790.46 3388.08L1787.48 3391.41C1785.84 3393.25 1784.63 3395.4 1784.79 3396.21C1785 3397.23 1784.17 3397.67 1782 3397.67C1780.3 3397.67 1778.68 3397.29 1778.4 3396.83Z" fill="#815543" stroke="#815543"/>
<path d="M2784.88 3561.45C2784.64 3559.4 2784.35 3558.41 2783.32 3556C2781.97 3552.83 2782.79 3547 2784.58 3547C2786.81 3547 2788.26 3551.01 2787.73 3555.73C2787.28 3559.68 2785.18 3563.9 2784.88 3561.45Z" fill="#815543" stroke="#815543"/>
<path d="M2491.68 3667.25C2490.15 3665.73 2489.81 3665.69 2489 3666.99C2488.35 3668.05 2487.77 3668.17 2487.02 3667.42C2486.27 3666.67 2486.41 3665.26 2487.52 3662.61C2488.81 3659.51 2489.51 3658.93 2491.61 3659.19C2493.09 3659.37 2494.84 3660.65 2495.8 3662.24C2497.37 3664.85 2497.35 3665.09 2495.45 3667C2493.53 3668.91 2493.35 3668.93 2491.68 3667.25Z" fill="#815543" stroke="#815543"/>
<path d="M3342.67 2470.45C3339.95 2467.04 3339.9 2466.8 3341.48 2464.39C3344.3 2460.09 3346.46 2461.66 3346.8 2468.26C3346.97 2471.42 3346.74 2474 3346.3 2474C3345.86 2474 3344.23 2472.4 3342.67 2470.45Z" fill="#815543" stroke="#815543"/>
<path d="M2107.21 3651.75C2106.47 3650.86 2106.7 3649.85 2113.45 3647.6C2116.33 3646.88 2119.53 3649.17 2118.69 3651.35C2117.92 3653.37 2108.81 3653.69 2107.21 3651.75Z" fill="#815543" stroke="#815543"/>
<path d="M2438.38 3375.25C2438.07 3374.29 2437.32 3372.47 2436.72 3371.21C2435.76 3369.2 2436.06 3368.47 2439.19 3365.34C2443.35 3361.18 2444.96 3361.53 2447.88 3367.26L2449.75 3370.93L2447.41 3372.47C2446.12 3373.31 2444.66 3374 2444.16 3374C2443.66 3374 2442.69 3374.67 2442 3375.5C2440.35 3377.48 2439.06 3377.4 2438.38 3375.25Z" fill="#815543" stroke="#815543"/>
<path d="M2335.73 3438.39C2334.86 3437.53 2337.24 3434 2338.68 3434C2340.85 3434 2341.34 3436.28 2339.46 3437.65C2337.42 3439.14 2336.63 3439.3 2335.73 3438.39Z" fill="#815543" stroke="#815543"/>
<path d="M2328.5 3452.02C2327.4 3451.54 2326.91 3451.11 2323.76 3448.46C2322.68 3450.39 2318.99 3450.45 2316.44 3448.57C2318.19 3444.55 2338.36 3444.55 2331.34 3445.42C2333.24 3444.69 2335.09 3447.31 2334.67 3450.12C2334.28 3452.71 2331.81 3453.47 2328.5 3452.02Z" fill="#815543" stroke="#815543"/>
<path d="M2987.59 1621.1C2985.62 1618.93 2985.72 1611.91 2987.72 1611.25C2988.39 1611.03 2990.16 1612.07 2991.66 1613.57C2994.33 1616.24 2994.34 1616.31 2992.41 1617.89C2991.33 1618.78 2990.61 1620.29 2990.8 1621.25C2991.26 1623.55 2989.74 1623.48 2987.59 1621.1Z" fill="#815543" stroke="#815543"/>
<path d="M1773 3184.95C1666.49 3181.34 1551.63 3158.62 1449 3120.86C1400.41 3102.99 1368.6 3089.38 1330.31 3070.11C1253.63 3031.51 1191.76 2991.9 1128 2940.59C1082.62 2904.06 1029.8 2853.35 989.398 2807.5C970.596 2786.16 934.262 2739.16 914.807 2711C891.992 2677.98 861.412 2626.67 842.392 2589.5C829.377 2564.06 821.866 2547.61 808.833 2516C804.412 2505.27 798.652 2491.32 796.034 2485C786.421 2461.78 763.14 2386.69 756.036 2356C736.774 2272.77 730.002 2220.72 728.388 2143.5C727.571 2104.42 730.651 2011.01 733.482 1989C737.511 1957.68 751.479 1921.94 768.65 1899.02C782.965 1879.91 803.789 1860.1 821.5 1848.74C830.022 1843.27 852.289 1832.12 860.5 1829.21C880.777 1822.02 893.774 1819.67 922.095 1818.06C937.027 1817.21 1410.59 1816.41 1411.2 1817.23C1411.31 1817.38 1411.68 1844.27 1412.03 1877C1412.74 1943.74 1412.63 1942.64 1420.97 1968.03C1442.8 2034.5 1505.71 2079.28 1582 2082.65C1612.59 2083.99 1647.49 2076.84 1675.99 2063.38C1702.12 2051.04 1726.87 2029.45 1743.97 2004.09C1754.18 1988.95 1764.71 1962.7 1769.14 1941.38C1771.28 1931.06 1771.42 1927.59 1771.95 1874L1772.5 1817.5H1802.5H1832.5L1833.06 1876.5L1833.62 1935.5L1836.31 1946.5C1837.79 1952.55 1840.64 1961.77 1842.65 1967C1864.8 2024.71 1907.66 2062.02 1969.5 2077.44C2005.04 2086.3 2047.01 2084.07 2080.27 2071.55C2138.3 2049.71 2176.49 2005.74 2189.71 1945.57L2192.36 1933.5L2192.74 1876.02C2193.02 1833.03 2193.42 1818.35 2194.31 1817.79C2196.21 1816.58 3033.46 1816.82 3048.6 1818.03C3077.38 1820.34 3102.93 1825.86 3131.22 1835.88C3152.74 1843.5 3163.82 1848.46 3182.22 1858.68C3224.12 1881.97 3257.79 1909.68 3284.65 1943C3330.38 1999.73 3356.82 2062.55 3365.67 2135.54C3368.05 2155.15 3368.03 2204.43 3365.63 2222C3358.9 2271.45 3343.99 2320.13 3325.21 2354C3309.28 2382.72 3288.24 2411.67 3268.61 2431.84C3258.58 2442.15 3236 2461.78 3223.71 2470.88C3195.2 2491.98 3158.07 2511.81 3134.5 2518.53C3131.2 2519.47 3128 2520.64 3127.4 2521.12C3125.53 2522.61 3088.17 2531.69 3075 2533.85C3056.65 2536.86 3041.82 2537.99 3020.71 2538C2993.09 2538 2968.76 2534.8 2939.5 2527.31C2903.33 2518.06 2877.92 2507.3 2840.26 2485.31C2832.43 2480.74 2825.67 2477 2825.24 2477C2824.81 2477 2822.29 2482.51 2819.63 2489.25C2811.65 2509.46 2792.48 2552.15 2781.56 2574C2743.44 2650.28 2694.67 2725.58 2644.24 2786C2586.01 2855.77 2518.44 2919.66 2449.5 2970.15C2366.71 3030.78 2269.51 3084.07 2182.91 3116.33C2130.05 3136.02 2085.92 3149.66 2050 3157.43C2043.68 3158.8 2030.18 3161.75 2020 3163.99C1943.35 3180.84 1860.15 3187.9 1773 3184.95ZM3060.5 2336.99C3093.26 2330.07 3120.55 2313.87 3142 2288.61C3148.67 2280.76 3159.99 2262.41 3165.09 2251.2C3181.17 2215.88 3182.95 2161.75 3169.39 2121C3161.78 2098.13 3151.05 2080.89 3133.57 2063.46C3110.42 2040.36 3084.38 2026.15 3056.56 2021.43C3044.27 2019.34 3015.79 2019.93 3004 2022.51C2979.26 2027.93 2958.98 2038.69 2937.38 2057.86C2909.8 2082.33 2891.91 2117.82 2887.91 2156C2886.17 2172.58 2887.26 2206.79 2889.91 2219.11C2896.9 2251.56 2908.81 2274.92 2929.59 2296.95C2949.81 2318.38 2982.26 2334.59 3013.63 2338.93C3024.54 2340.44 3048.96 2339.43 3060.5 2336.99Z" fill="white" stroke="white"/>
<path d="M1533.5 1614.97C1508.84 1611.73 1494.01 1607.48 1474.21 1597.97C1451.79 1587.21 1434.86 1574.88 1416.8 1556.15C1386.77 1524.99 1368.67 1487.38 1362.81 1444C1361.03 1430.77 1361.03 1357.45 1362.81 1342.5C1367.64 1302.1 1378.38 1270.78 1397.04 1242.71C1405.33 1230.25 1427.66 1205.86 1438.9 1197C1472.71 1170.34 1506.78 1157.27 1547.45 1155.35C1594.65 1153.12 1638.11 1167.73 1674.16 1197.95C1705.69 1224.38 1730.95 1264.72 1741.13 1304.88C1746.8 1327.27 1747.5 1336.03 1747.49 1385C1747.48 1433.74 1746.91 1440.84 1741.02 1465.5C1734.92 1491.04 1722.58 1516.74 1705.5 1539.51C1693.02 1556.14 1666.66 1579.39 1647.17 1590.97C1628.61 1601.99 1606.66 1610.09 1586 1613.52C1574.69 1615.4 1543.37 1616.27 1533.5 1614.97Z" fill="white" stroke="white"/>
<path d="M2032 1615.39C1993.85 1610.78 1964.2 1599.53 1937.49 1579.52C1896.12 1548.52 1868.26 1502.38 1859.6 1450.5C1855.58 1426.46 1855.5 1422.79 1855.5 1261.5C1855.5 1090.04 1855.26 1097.64 1861.63 1069C1868.69 1037.25 1883.24 1006.1 1902.03 982.5C1912.55 969.297 1932.03 951.655 1947 941.777C1997.9 908.194 2059.63 900.832 2115.5 921.683C2128.82 926.656 2148.07 937.624 2162.35 948.383C2172.58 956.089 2188.65 971.452 2195.66 980.21C2223.09 1014.53 2240.51 1060.02 2244.95 1109C2246.38 1124.73 2246.37 1403.5 2244.94 1422.5C2243.81 1437.53 2240.43 1456.74 2236.44 1470.79C2215.6 1544.2 2161.06 1596.53 2088.57 1612.67C2079.17 1614.76 2074.33 1615.18 2056.5 1615.47C2044.95 1615.66 2033.92 1615.62 2032 1615.39Z" fill="white" stroke="white"/>
<path d="M1740.05 1471.29C1740.02 1470.62 1740.87 1466.35 1741.93 1461.79C1746.86 1440.64 1747.48 1432.1 1747.49 1385C1747.5 1336.03 1746.8 1327.27 1741.13 1304.88C1728.99 1256.98 1696.96 1211.51 1656.29 1184.44C1638.98 1172.93 1615.63 1163.21 1595.5 1159.14C1531.56 1146.23 1469.09 1164.91 1424.75 1210.21C1418.84 1216.25 1414 1220.88 1414 1220.49C1414 1218.88 1430.14 1202.14 1438.01 1195.58C1468.95 1169.81 1501.47 1157.09 1544 1154.12C1560.56 1152.96 1569.64 1153.44 1588.11 1156.44C1608.93 1159.82 1616.75 1162.02 1632.6 1168.97C1664.96 1183.16 1694.72 1210.36 1719.52 1248.39C1726 1258.35 1732.13 1271.14 1737.27 1285.5C1747.29 1313.49 1749 1327.81 1749 1383.57C1749 1422.13 1748.32 1434.8 1745.36 1451.83C1743.84 1460.53 1740.17 1473.99 1740.05 1471.29Z" fill="#866B5B" stroke="#866B5B"/>
<path d="M3013.63 2338.93C2982.26 2334.59 2949.81 2318.38 2929.59 2296.95C2908.81 2274.92 2896.9 2251.56 2889.92 2219.11C2887.26 2206.79 2886.17 2172.58 2887.91 2156C2891.91 2117.82 2909.8 2082.33 2937.38 2057.86C2958.98 2038.69 2979.26 2027.93 3004 2022.51C3015.79 2019.93 3044.27 2019.34 3056.56 2021.43C3084.38 2026.15 3110.42 2040.36 3133.57 2063.46C3151.05 2080.89 3161.78 2098.13 3169.39 2121C3182.95 2161.75 3181.17 2215.88 3165.09 2251.2C3159.99 2262.41 3148.67 2280.76 3142 2288.61C3120.55 2313.87 3093.26 2330.07 3060.5 2336.99C3048.96 2339.43 3024.54 2340.44 3013.63 2338.93Z" fill="#815A44" stroke="#815A44"/>
</g>
<defs>
<clipPath id="clip0_4_44">
<rect width="4096" height="4096" fill="white"/>
</clipPath>
</defs>
</svg>
