<svg width="4096" height="4096" viewBox="0 0 4096 4096" fill="none" xmlns="http://www.w3.org/2000/svg">
<path d="M2556.49 2878.01C2558.06 2876.37 2559.58 2875.24 2559.85 2875.51C2560.51 2876.17 2555.93 2881 2554.64 2881C2554.08 2881 2554.91 2879.65 2556.49 2878.01Z" fill="#725444" stroke="#725444"/>
<path d="M2136.38 3132.2C2137.22 3130.84 2141.17 3129.04 2150 3126C2153.57 3124.77 2157.17 3123.21 2158 3122.52C2158.82 3121.83 2161.04 3120.98 2162.93 3120.62C2164.82 3120.27 2167.09 3119.32 2167.97 3118.52C2168.86 3117.72 2171.19 3116.87 2173.16 3116.63C2176.87 3116.17 2182.44 3113.71 2183.44 3112.09C2183.93 3111.31 2188.16 3110.26 2194 3109.48C2195.75 3109.25 2198.34 3108.21 2206.19 3104.61C2209.31 3103.18 2212.3 3102 2212.82 3102C2213.7 3102 2221.57 3098.64 2231.5 3094.04C2233.7 3093.02 2237.07 3091.94 2239 3091.65C2241.56 3091.25 2241.96 3091.35 2240.5 3092.01C2213.55 3104.09 2194.54 3111.79 2165 3122.56C2150.97 3127.68 2138.64 3132.2 2137.59 3132.6C2136.27 3133.11 2135.89 3132.98 2136.38 3132.2Z" fill="#775E4E" stroke="#775E4E"/>
<path d="M2008 2084.89C1993.17 2083.57 1994.14 2083.27 2013.5 2083.2C2023.4 2083.16 2034.65 2082.66 2038.5 2082.08C2047.34 2080.77 2048.66 2080.74 2047.45 2081.94C2046.52 2082.85 2043.6 2083.27 2029.5 2084.51C2025.65 2084.85 2021.38 2085.26 2020 2085.43C2018.63 2085.6 2013.23 2085.36 2008 2084.89Z" fill="#725444" stroke="#725444"/>
<path d="M1588.5 2087.37C1586.85 2086.49 1583.02 2085.58 1580 2085.34C1567.8 2084.37 1551.04 2081.93 1543.58 2080.02C1539.24 2078.91 1534.1 2078 1532.17 2078C1530.24 2078 1527.95 2077.4 1527.08 2076.66C1526.21 2075.92 1522.8 2074.31 1519.5 2073.08C1512.65 2070.52 1514.04 2071.22 1497.27 2061.95C1484.3 2054.79 1482.25 2053.42 1483.12 2052.54C1483.39 2052.27 1485.26 2053.17 1487.26 2054.53C1493.83 2059 1511.32 2067.82 1520.5 2071.31C1530.36 2075.05 1549.25 2080.1 1561 2082.14C1572.22 2084.08 1602.98 2083.81 1616.96 2081.64C1647.1 2076.97 1673.25 2067.97 1693.16 2055.4C1695.38 2054 1697.38 2053.05 1697.62 2053.29C1697.86 2053.53 1696.03 2055.97 1693.55 2058.73C1690.12 2062.55 1688.15 2063.88 1685.25 2064.34C1683.16 2064.68 1679.98 2066.04 1678.18 2067.37C1676.15 2068.86 1672.79 2070.05 1669.33 2070.48C1666.27 2070.86 1661.68 2072.07 1659.13 2073.17C1656.58 2074.27 1650.67 2076.04 1646 2077.1C1628.84 2081 1618.72 2083 1616.21 2083C1614.79 2083 1611.63 2083.97 1609.18 2085.15C1605.62 2086.88 1604.36 2087.08 1602.88 2086.15C1600.45 2084.64 1599 2084.7 1597.08 2086.38C1594.4 2088.72 1591.63 2089.04 1588.5 2087.37Z" fill="#725444" stroke="#725444"/>
<path d="M1923.52 2068.02C1922.5 2066.9 1921.98 2065.69 1922.34 2065.32C1922.71 2064.96 1922.32 2063.61 1921.48 2062.33C1919.58 2059.43 1920.32 2059.46 1926 2062.5C1928.47 2063.83 1929.72 2064.93 1928.76 2064.96C1927.59 2064.99 1927.1 2065.7 1927.26 2067.14C1927.59 2070.05 1925.75 2070.48 1923.52 2068.02Z" fill="#725444" stroke="#725444"/>
<path d="M2457.62 2962.32C2467.46 2953.41 2486.82 2938.48 2487.57 2939.23C2488.1 2939.77 2457.51 2964.34 2455.71 2964.82C2455.04 2965 2455.9 2963.87 2457.62 2962.32Z" fill="#725444" stroke="#725444"/>
<path d="M1155.15 2961.85C1149.04 2957.33 1144.21 2953.46 1144.43 2953.24C1145.09 2952.58 1148.67 2954.8 1157.31 2961.22C1167.23 2968.58 1167.51 2968.83 1166.82 2969.51C1166.52 2969.81 1161.27 2966.36 1155.15 2961.85Z" fill="#725444" stroke="#725444"/>
<path d="M2545 2888.5C2547.43 2886.03 2549.87 2884 2550.42 2884C2550.97 2884 2549.43 2886.03 2547 2888.5C2544.57 2890.97 2542.13 2893 2541.58 2893C2541.03 2893 2542.57 2890.97 2545 2888.5Z" fill="#725444" stroke="#725444"/>
<path d="M1938.5 2069.57C1931.92 2066.4 1934.18 2066.29 1941.12 2069.44C1944.08 2070.78 1945.82 2071.9 1945 2071.93C1944.17 2071.95 1941.25 2070.89 1938.5 2069.57Z" fill="#725444" stroke="#725444"/>
<path d="M2352 3033.17C2352 3031.83 2356 3027 2357.1 3027C2357.63 3027 2361.14 3024.97 2364.9 3022.5C2368.65 3020.03 2372.07 3018 2372.49 3018C2374.18 3018 2386 3011.65 2387.6 3009.89C2388.54 3008.85 2389.64 3008 2390.05 3008C2390.46 3008 2392.38 3006.42 2394.3 3004.5C2396.23 3002.58 2398.46 3001 2404.5 2998C2405.2 2998 2407.88 2996.06 2410.47 2993.68C2413.05 2991.31 2417.27 2988.27 2419.83 2986.93C2424.81 2984.34 2426.08 2983.44 2438.5 2973.65C2444.18 2969.17 2447.66 2967.16 2450.5 2966.72L2454.5 2966.09L2452 2968.18C2442.24 2976.3 2390.6 3011.27 2371.31 3022.81C2353.12 3033.69 2352 3034.29 2352 3033.17Z" fill="#725444" stroke="#725444"/>
<path d="M771.606 1896.75C772.694 1894.87 785.808 1879.4 787.514 1877.99C790.656 1875.38 789.019 1880.97 785.5 1884.87C783.575 1887 782 1889.22 782 1889.8C782 1891.14 773.708 1898 772.088 1898C771.404 1898 771.195 1897.46 771.606 1896.75Z" fill="#725444" stroke="#725444"/>
<path d="M2494 2933.62C2494 2933.32 2496.81 2930.74 2500.25 2927.89C2503.69 2925.03 2509.42 2920.11 2513 2916.94C2532.55 2899.61 2535.59 2897.05 2536.5 2897.05C2537.67 2897.06 2532.21 2902.07 2511.21 2920.26C2496.76 2932.77 2494 2934.91 2494 2933.62Z" fill="#725444" stroke="#725444"/>
<path d="M1058.46 2879.5C1051.33 2872.68 1045.95 2867.1 1046.5 2867.09C1047.87 2867.07 1072.63 2890.67 1071.96 2891.36C1071.67 2891.66 1065.59 2886.32 1058.46 2879.5Z" fill="#725444" stroke="#725444"/>
<path d="M3033.5 2344.06C3032.4 2343.62 3028.13 2342.96 3024 2342.6C3012.07 2341.57 3000.65 2339.89 2998.76 2338.91C2997.81 2338.41 2995.98 2338 2994.71 2338C2993.43 2338 2991.51 2337.34 2990.44 2336.53C2989.37 2335.72 2987.59 2335.05 2986.47 2335.03C2985.36 2335.01 2983.56 2334.39 2982.47 2333.64C2981.39 2332.9 2978.73 2331.96 2976.56 2331.56C2974.4 2331.16 2971.05 2329.54 2969.12 2327.94C2965.87 2325.27 2965.47 2325.17 2963.84 2326.64C2962.21 2328.12 2961.74 2327.94 2957.4 2324.12C2954.82 2321.85 2952.3 2320 2951.8 2320C2951.29 2320 2948.82 2318.42 2946.3 2316.5C2943.77 2314.57 2941.36 2313 2940.93 2313C2940.49 2313 2937.09 2310.09 2933.35 2306.54C2929.62 2302.99 2925.65 2299.95 2924.53 2299.79C2923.42 2299.63 2922.49 2298.82 2922.47 2298C2922.46 2297.17 2921.33 2295.3 2919.97 2293.83C2915.72 2289.23 2913 2285.24 2913 2283.61C2913 2282.75 2911.88 2281.31 2910.5 2280.41C2909.05 2279.46 2908 2277.82 2908 2276.51C2908 2275.26 2907.3 2273.66 2906.43 2272.95C2905.57 2272.23 2904.16 2270.26 2903.28 2268.57C2902.41 2266.88 2900.88 2264.92 2899.87 2264.2C2898.57 2263.29 2898.14 2261.98 2898.4 2259.7C2898.61 2257.94 2898.84 2255.82 2898.91 2255C2898.98 2254.17 2899.86 2255.3 2900.86 2257.5C2904.17 2264.77 2914.05 2279.93 2920.96 2288.31C2940.69 2312.25 2975.64 2332.57 3007.23 2338.47C3038.88 2344.38 3066.89 2340.74 3095.5 2327C3109.36 2320.35 3121.58 2311.42 3134.52 2298.5C3153.15 2279.9 3166.51 2257.1 3173.49 2232C3174.79 2227.32 3175.89 2224.64 3175.93 2226.04C3175.97 2227.44 3175.33 2231.17 3174.5 2234.34C3173.68 2237.51 3173 2240.98 3173 2242.05C3173 2243.12 3171.49 2247.04 3169.63 2250.75C3167.78 2254.46 3165.25 2260.2 3164.01 2263.5C3160.15 2273.77 3158.5 2276.83 3154.63 2280.87C3153.18 2282.38 3152 2284.29 3152 2285.12C3152 2285.95 3150.65 2287.92 3149 2289.5C3147.35 2291.08 3146 2293.2 3140.43 2299.32C3140.14 2300.07 3136.82 2303.03 3133.04 2305.9C3129.26 2308.77 3125.94 2311.73 3125.65 2312.46C3124.57 2315.29 3104.27 2327 3100.45 2327C3099.61 2327 3097.87 2327.7 3096.56 2328.55C3095.26 2329.4 3092.02 2330.94 3089.35 2331.96C3086.68 2332.99 3081.27 2335.18 3077.33 2336.84C3073.38 2338.5 3069.27 2339.62 3068.19 2339.34C3067.12 2339.06 3064.77 2339.59 3062.97 2340.51C3060.84 2341.62 3056.38 2342.36 3050.1 2342.66C3044.82 2342.91 3040.07 2343.54 3039.55 2344.06C3038.42 2345.18 3036.25 2345.18 3033.5 2344.06Z" fill="#725444" stroke="#725444"/>
<path d="M2088.73 2074.91C2087.76 2074.34 2086.07 2074.16 2084.99 2074.5C2083.91 2074.85 2082.13 2074.5 2081.04 2073.74C2079.18 2072.44 2079.42 2072.23 2084.58 2070.61C2091.96 2068.28 2109.87 2059.22 2118.27 2053.56C2125.04 2049.01 2126.6 2048.22 2125.57 2049.88C2124.69 2051.31 2110.91 2060.31 2105.5 2063C2102.75 2064.36 2100.14 2066.04 2099.7 2066.74C2099.26 2067.43 2098.36 2068.01 2097.7 2068.03C2095.62 2068.09 2092.16 2071.61 2092.33 2073.48C2092.54 2075.7 2091.08 2076.27 2088.73 2074.91Z" fill="#725444" stroke="#725444"/>
<path d="M1787.5 3184.89C1772.1 3184.56 1756.35 3184 1752.5 3183.64C1748.65 3183.29 1736.73 3182.3 1726 3181.44C1700 3179.37 1657.83 3174.45 1640.45 3171.47C1589.66 3162.75 1527.7 3147.64 1487 3134.03C1406.39 3107.1 1333.2 3074.09 1259.06 3031.23C1222.74 3010.23 1168.57 2973.93 1167.01 2969.54C1166.32 2967.61 1149.36 2955.05 1145 2953.25C1141.06 2951.61 1129.35 2942.37 1108 2924.05C1086.04 2905.2 1072.57 2892.93 1071.87 2891.12C1071.12 2889.17 1047.6 2867 1046.28 2867C1045.19 2867 1041.59 2863.17 1040.64 2861C1038.89 2857.02 1036.13 2853.39 1034.06 2852.35C1031.38 2851 1022 2841.96 1022 2840.72C1022 2840.26 1017.28 2835.33 1011.5 2829.77C1005.73 2824.21 1001 2819.28 1001 2818.81C1001 2817.54 988.362 2801.18 983.354 2795.97C980.96 2793.47 979 2790.96 979 2790.38C979 2789.8 976.975 2787.43 974.5 2785.11C972.025 2782.79 970 2780.2 970 2779.36C970 2778.52 968.425 2776.43 966.5 2774.73C964.575 2773.03 963 2771.06 959 2765.51C959 2764.73 956.904 2763.05 954.343 2761.77C949.383 2759.3 948.933 2758.73 947.009 2752.5C946.33 2750.3 944.33 2746.92 942.565 2745C940.8 2743.08 938.591 2740.26 937.655 2738.75C936.719 2737.24 935.107 2736 934.072 2736C929.754 2736 901.227 2692.79 862.861 2628.13C850.796 2607.8 815.087 2533.23 802.465 2502C793.374 2479.51 768.69 2403.82 761.509 2376.41C759.504 2368.76 756.552 2357.55 754.949 2351.5C749.858 2332.29 747.25 2317.18 747.525 2308.5C747.769 2300.81 746.299 2295 744.112 2295C742.996 2295 740.748 2275.63 741.094 2269C741.166 2267.62 741.165 2265.6 741.092 2264.5C741.019 2263.4 740.957 2261.18 740.954 2259.57C740.951 2257.96 740.449 2256.04 739.84 2255.31C739.175 2254.51 738.973 2252.22 739.334 2249.58C739.773 2246.38 739.541 2244.86 738.477 2243.98C737.549 2243.21 737.242 2241.88 737.632 2240.33C738.059 2238.63 737.62 2237.22 736.189 2235.7C731.53 2230.72 729.539 2194.13 729.564 2114C729.585 2047 730.935 2003.76 733.496 1988C736.96 1966.68 746.022 1939.07 755.136 1922.06C761.671 1909.86 769.802 1898 771.625 1898C773.586 1898 782 1891.35 782 1889.8C782 1889.22 783.575 1887 785.5 1884.87C787.425 1882.74 789 1879.97 789 1878.71C789 1877.09 791.726 1874.03 798.48 1868.07C819.938 1849.14 834.631 1840.14 859.514 1830.71C881.277 1822.46 897.685 1819.13 922 1818.04C943.814 1817.05 1407.16 1816.8 1408.67 1817.77C1409.54 1818.32 1409.96 1833.82 1410.29 1877.01C1410.77 1940.18 1410.91 1942.09 1416.64 1961C1425.34 1989.73 1440.11 2013.53 1462.22 2034.45C1468.39 2040.28 1475.56 2046.5 1478.15 2048.28C1480.75 2050.05 1483.05 2052.17 1483.28 2053C1483.61 2054.2 1494.36 2060.59 1511.65 2069.85C1512.67 2070.4 1516.2 2071.85 1519.5 2073.08C1522.8 2074.31 1526.21 2075.92 1527.08 2076.66C1527.95 2077.4 1530.24 2078 1532.17 2078C1534.1 2078 1539.24 2078.91 1543.58 2080.02C1551.01 2081.92 1567.59 2084.35 1580 2085.35C1583.03 2085.59 1586.91 2086.52 1588.64 2087.41C1591.85 2089.08 1594.15 2088.69 1598.19 2085.8C1599.51 2084.85 1600.4 2084.88 1602.36 2085.92C1604.53 2087.09 1605.4 2086.99 1609.24 2085.13C1611.65 2083.96 1614.79 2083 1616.21 2083C1618.72 2083 1628.84 2081 1646 2077.1C1650.68 2076.04 1656.58 2074.27 1659.13 2073.17C1661.68 2072.07 1666.27 2070.86 1669.33 2070.48C1672.79 2070.05 1676.15 2068.86 1678.18 2067.37C1679.98 2066.04 1683.15 2064.68 1685.22 2064.35C1687.99 2063.91 1689.97 2062.62 1692.74 2059.46C1694.81 2057.1 1697.64 2053.89 1699.04 2052.33C1700.43 2050.78 1705.79 2046.12 1710.94 2042C1735.47 2022.36 1757.22 1989.09 1765.85 1958C1771.07 1939.2 1771.3 1936.09 1771.92 1875L1772.5 1817.5H1802H1831.5L1832.05 1875C1832.52 1923.63 1832.87 1933.89 1834.33 1941.5C1841.34 1978.14 1855.35 2004.62 1881.42 2030.5C1893.44 2042.43 1908.66 2054.15 1917.15 2058.02C1919.85 2059.25 1922.99 2063.81 1922.34 2065.57C1921.79 2067.08 1925.64 2070.34 1929.36 2065C1930.73 2065 1932.55 2065.69 1933.39 2066.53C1935.35 2068.49 1942.94 2071.95 1945.35 2071.98C1946.37 2071.99 1951.77 2073.32 1957.35 2074.94C1968.85 2078.26 1987.43 2082 1992.47 2082C1994.32 2082 1995.98 2082.42 1996.17 2082.93C1996.67 2084.32 2017.66 2085.76 2025.56 2084.94C2029.38 2084.54 2035.61 2083.93 2039.42 2083.59C2043.22 2083.25 2046.91 2082.49 2047.61 2081.91C2048.31 2081.33 2051.72 2080.2 2055.19 2079.41C2058.66 2078.62 2065.41 2076.8 2070.18 2075.35C2075.8 2073.65 2079.5 2073.02 2080.68 2073.56C2081.68 2074.01 2083.85 2074.48 2085.5 2074.59C2087.15 2074.71 2089.4 2074.96 2090.5 2075.15C2091.96 2075.41 2092.46 2074.99 2092.34 2073.59C2092.17 2071.63 2095.57 2068.09 2097.7 2068.03C2098.36 2068.01 2099.26 2067.43 2099.7 2066.74C2100.14 2066.04 2102.75 2064.36 2105.5 2063C2112.86 2059.36 2122.11 2052.89 2128.6 2046.83C2131.75 2043.9 2137.67 2038.35 2141.77 2034.5C2150.85 2025.97 2165.07 2007.34 2171.47 1995.61C2180.68 1978.71 2187.13 1960.33 2191.24 1939.25C2193.17 1929.32 2193.37 1924.29 2193.74 1873.32L2194.14 1818.13L2203.82 1817.72C2223.53 1816.89 3028.07 1817.19 3043.06 1818.03C3084.1 1820.35 3128.47 1832.18 3165.31 1850.65C3201.38 1868.72 3225.78 1885.6 3253.89 1911.93C3282.25 1938.49 3302.96 1966.32 3324.67 2007C3339.26 2034.34 3347.71 2056.3 3355.93 2088.23C3364.01 2119.63 3367.01 2143.9 3366.98 2177.7C3366.93 2233.35 3357.37 2280.51 3336.29 2328.99C3330.19 2343.03 3313.16 2373.37 3302.9 2388.5C3266.76 2441.76 3213.52 2485.03 3151.62 2511.43C3139.57 2516.57 3103.77 2527.66 3089 2530.82C3065.65 2535.82 3058.15 2536.47 3024 2536.46C2995.73 2536.45 2989.42 2536.16 2975.5 2534.2C2948.99 2530.47 2921.92 2523.22 2894.4 2512.48C2875.41 2505.06 2868.58 2501.73 2865.48 2498.38C2864.22 2497.03 2860.76 2495.06 2857.79 2494.02C2851.8 2491.91 2840.57 2485.79 2831.68 2479.77C2828.49 2477.61 2825.27 2476.06 2824.55 2476.34C2823.82 2476.62 2822.43 2479.02 2821.45 2481.68C2817.14 2493.47 2812.67 2503.77 2810.49 2507C2809.19 2508.92 2807.84 2511.85 2807.48 2513.5C2805.94 2520.67 2803.57 2526 2801.93 2526C2798.98 2526 2797.58 2528.97 2797.47 2535.44C2797.38 2541.39 2796.66 2543.09 2780.28 2576.08C2762.67 2611.56 2742.31 2646.85 2716.02 2687.5C2701.06 2710.63 2698.93 2713.64 2677.64 2742C2656.31 2770.4 2637.19 2794.05 2619.03 2814.5C2600.13 2835.79 2561.05 2876.15 2559.98 2875.49C2559.51 2875.2 2557.43 2877 2555.35 2879.48C2553.28 2881.97 2551.02 2884 2550.35 2884C2549.68 2884 2546.51 2886.92 2543.31 2890.5C2540.12 2894.08 2537.05 2897.01 2536.5 2897.02C2535.58 2897.04 2531.44 2900.56 2512.66 2917.27C2508.89 2920.62 2503.72 2925.03 2501.16 2927.07C2498.6 2929.11 2495.02 2932.63 2493.2 2934.89C2491.39 2937.15 2489.21 2939 2488.35 2939C2486.1 2939 2466.16 2954.22 2457.12 2962.84C2455.04 2964.82 2452.16 2966.42 2450.06 2966.76C2447.77 2967.13 2443.65 2969.59 2438.5 2973.65C2426.08 2983.44 2424.81 2984.34 2419.83 2986.93C2417.27 2988.27 2413.05 2991.31 2410.47 2993.68C2407.88 2996.06 2405.2 2998 2399.28 3001C2398.47 3001 2396.23 3002.58 2394.3 3004.5C2392.38 3006.42 2390.47 3008 2390.06 3008C2389.65 3008 2388.54 3008.85 2387.6 3009.89C2386 3011.65 2374.18 3018 2372.49 3018C2372.07 3018 2368.74 3019.91 2365.08 3022.25C2361.42 3024.59 2357.55 3026.98 2356.47 3027.57C2355.39 3028.15 2353.83 3030 2353 3031.68C2352.04 3033.62 2349.14 3036.09 2345 3038.49C2329.33 3047.54 2307.58 3059.21 2296.5 3064.51C2289.9 3067.67 2283.38 3070.87 2282 3071.62C2275.74 3075.05 2248.41 3088.26 2243.92 3090.03C2241.17 3091.11 2237.91 3092 2236.66 3092C2235.42 3092 2233.97 3092.43 2233.45 3092.94C2232.48 3093.91 2220.73 3099.03 2213.5 3101.65C2211.3 3102.44 2207.49 3104.02 2205.03 3105.15C2198.62 3108.11 2195.71 3109.25 2194 3109.48C2188.16 3110.26 2183.93 3111.31 2183.44 3112.09C2182.44 3113.71 2176.87 3116.17 2173.16 3116.63C2171.19 3116.87 2168.86 3117.72 2167.97 3118.52C2167.09 3119.32 2164.82 3120.27 2162.93 3120.62C2161.05 3120.98 2158.83 3121.83 2158 3122.52C2157.18 3123.21 2153.58 3124.77 2150 3126C2143.46 3128.25 2138.78 3130.26 2136 3131.99C2131.84 3134.59 2122.9 3137.54 2095 3145.51C2043.68 3160.18 1981.89 3172.86 1937 3177.95C1883.36 3184.03 1840.23 3186.04 1787.5 3184.89ZM1439.53 3031.97C1441.25 3030.06 1441.26 3029.83 1434.96 3032.45C1436.64 3034.48 1437.32 3034.41 1439.53 3031.97ZM1407.5 3027C1409.42 3026.27 1410.05 3025.41 1409.82 3023.83C1409.36 3020.7 1407.73 3020.59 1404.62 3023.48C1400.65 3027.16 1402.18 3029.02 1407.5 3027ZM1424.75 3018.25C1425.3 3016.61 1422.16 3015.44 1420.82 3016.78C1420.25 3017.36 1420.09 3018.34 1420.48 3018.97C1421.36 3020.4 1424.19 3019.92 1424.75 3018.25ZM3039.55 2344.06C3040.07 2343.54 3044.82 2342.91 3050.1 2342.66C3056.38 2342.36 3060.84 2341.62 3062.97 2340.51C3064.77 2339.59 3067.12 2339.06 3068.19 2339.34C3069.27 2339.62 3073.38 2338.5 3077.33 2336.84C3081.27 2335.18 3086.68 2332.99 3089.35 2331.96C3092.02 2330.94 3095.26 2329.4 3096.56 2328.55C3097.87 2327.7 3099.61 2327 3100.45 2327C3104.27 2327 3124.57 2315.29 3125.65 2312.46C3125.94 2311.73 3129.26 2308.77 3133.04 2305.9C3136.82 2303.03 3140.14 2300.07 3146 2294.21C3146 2293.2 3147.35 2291.08 3149 2289.5C3150.65 2287.92 3152 2285.95 3152 2285.12C3152 2284.29 3153.18 2282.38 3154.63 2280.87C3158.5 2276.83 3160.15 2273.77 3164.01 2263.5C3165.25 2260.2 3167.63 2254.8 3169.29 2251.5C3172.31 2245.51 3172.92 2243.28 3174.89 2231C3178.2 2210.44 3178.5 2206.26 3178.41 2181.5C3178.34 2157.46 3178.13 2154.55 3175.7 2142.94C3169.04 2111.19 3156.87 2086.47 3138.22 2066.87C3106.06 2033.09 3069.5 2017.52 3026.5 2019.31C2997.72 2020.51 2978.55 2026.68 2955.34 2042.2C2929.77 2059.3 2909 2085.07 2897.89 2113.49C2895.93 2118.5 2894.65 2120.49 2893.37 2120.49C2891.34 2120.5 2889.69 2125.98 2890.56 2129.85C2890.85 2131.14 2890.18 2136.76 2889.06 2142.35C2886.26 2156.43 2884.86 2181.57 2885.97 2198.12C2887.07 2214.41 2889.79 2228 2894.66 2241.43C2897.16 2248.35 2898.34 2253.32 2898.4 2257.33C2898.47 2261.42 2898.98 2263.5 2900.1 2264.33C2900.97 2264.97 2902.41 2266.88 2903.28 2268.57C2904.15 2270.26 2905.57 2272.23 2906.43 2272.95C2907.3 2273.66 2908 2275.26 2908 2276.51C2908 2277.82 2909.05 2279.46 2910.5 2280.41C2911.88 2281.31 2913 2282.75 2913 2283.61C2913 2285.24 2915.72 2289.23 2919.97 2293.83C2921.33 2295.3 2922.46 2297.17 2922.47 2298C2922.49 2298.82 2923.42 2299.63 2924.54 2299.79C2925.65 2299.95 2929.62 2302.99 2933.35 2306.54C2937.09 2310.09 2940.49 2313 2940.93 2313C2941.36 2313 2943.78 2314.57 2946.3 2316.5C2948.82 2318.42 2951.29 2320 2951.8 2320C2952.3 2320 2954.82 2321.85 2957.4 2324.12C2961.74 2327.94 2962.21 2328.12 2963.84 2326.64C2965.47 2325.17 2965.87 2325.27 2969.12 2327.94C2971.05 2329.54 2974.4 2331.17 2976.56 2331.56C2978.73 2331.96 2981.39 2332.9 2982.47 2333.64C2983.56 2334.39 2985.36 2335.01 2986.47 2335.03C2987.59 2335.05 2989.37 2335.72 2990.44 2336.53C2991.51 2337.34 2993.43 2338 2994.71 2338C2995.98 2338 2997.81 2338.41 2998.76 2338.91C3000.65 2339.89 3012.07 2341.57 3024 2342.6C3028.13 2342.96 3032.4 2343.62 3033.5 2344.06C3036.25 2345.18 3038.42 2345.18 3039.55 2344.06Z" fill="#835946" stroke="#835946"/>
<path d="M2860.2 2496.87C2857.28 2495.17 2855.07 2493.59 2855.29 2493.37C2855.98 2492.69 2863.11 2496.02 2865.29 2498.06C2868.33 2500.88 2866.27 2500.4 2860.2 2496.87Z" fill="#725444" stroke="#725444"/>
<path d="M2890.68 2130.6C2889.84 2128.41 2890.93 2121.16 2892.22 2120.37C2894.5 2118.96 2894.92 2121.87 2893.18 2126.99C2891.83 2130.96 2891.18 2131.91 2890.68 2130.6Z" fill="#725444" stroke="#725444"/>
<path d="M1434.96 3032.45C1433.88 3031.15 1434.02 3030.54 1439.53 3031.97C1437.32 3034.41 1436.64 3034.48 1434.96 3032.45Z" fill="#725444" stroke="#725444"/>
<path d="M744.711 2305.55C743.77 2300.98 743 2296.73 743 2296.12C743 2294.21 744.868 2294.89 746.141 2297.25C747.555 2299.87 748.416 2312.62 747.229 2313.36C746.784 2313.63 745.652 2310.12 744.711 2305.55Z" fill="#725444" stroke="#725444"/>
<path d="M1023.9 2845.25C1014.88 2836.02 1003.21 2823.71 997.971 2817.9C988.841 2807.78 951 2761.67 951 2760.67C951 2760.4 952.8 2761.05 955 2762.11C957.2 2763.18 959 2764.7 963 2770.35C963 2771.06 964.575 2773.03 966.5 2774.73C968.425 2776.44 970 2778.52 970 2779.36C970 2780.2 972.025 2782.79 974.5 2785.11C976.975 2787.43 979 2789.8 979 2790.38C979 2790.96 980.96 2793.47 983.354 2795.97C988.362 2801.18 1001 2817.54 1001 2818.81C1001 2819.28 1005.72 2824.21 1011.5 2829.77C1017.28 2835.33 1022 2840.26 1022 2840.72C1022 2841.98 1031.4 2851.02 1034.12 2852.37C1035.41 2853.01 1036.94 2854.5 1037.52 2855.66C1038.1 2856.83 1039.19 2858.52 1039.93 2859.42C1040.68 2860.31 1041.06 2861.27 1040.79 2861.54C1040.52 2861.82 1032.92 2854.48 1023.9 2845.25Z" fill="#725444" stroke="#725444"/>
<path d="M1420.48 3018.97C1420.09 3018.34 1420.25 3017.36 1420.82 3016.78C1422.16 3015.44 1425.3 3016.61 1424.75 3018.25C1424.19 3019.92 1421.36 3020.4 1420.48 3018.97Z" fill="#725444" stroke="#725444"/>
<path d="M940.07 2746.66C936.182 2741.42 933 2736.88 933 2736.57C933 2734.88 936.19 2736.38 937.655 2738.75C938.591 2740.26 940.781 2743.07 942.522 2745C945.77 2748.59 948.711 2754.62 947.704 2755.63C947.393 2755.94 943.958 2751.91 940.07 2746.66Z" fill="#725444" stroke="#725444"/>
<path d="M739.663 2276.75C737.003 2260.17 734 2238.18 734 2235.29C734 2233.91 734.287 2233.95 736.08 2235.57C737.569 2236.92 738.007 2238.22 737.622 2240.14C737.287 2241.81 737.622 2243.27 738.51 2244.01C739.538 2244.86 739.768 2246.42 739.334 2249.58C738.973 2252.22 739.175 2254.51 739.84 2255.31C740.449 2256.04 740.951 2257.96 740.954 2259.57C740.957 2261.18 741.019 2263.4 741.092 2264.5C741.165 2265.6 741.159 2267.63 741.079 2269C740.887 2272.29 741.564 2281.18 742.505 2287.75C742.919 2290.64 743.036 2293 742.764 2293C742.492 2293 741.097 2285.69 739.663 2276.75Z" fill="#725444" stroke="#725444"/>
<path d="M2807.07 2515.22C2806.97 2513.41 2809.92 2506.59 2810.53 2507.2C2810.81 2507.48 2810.17 2509.69 2809.09 2512.1C2808.02 2514.52 2807.11 2515.92 2807.07 2515.22Z" fill="#725444" stroke="#725444"/>
<path d="M1402.5 3027C1401.75 3025.79 1406.92 3020.81 1407.5 3027C1404.2 3028.25 1403.28 3028.25 1402.5 3027Z" fill="#725444" stroke="#725444"/>
<path d="M2797.53 2535.82C2796.38 2531.49 2798.71 2526 2801.69 2526C2803.29 2526 2802.96 2527.61 2799.97 2534.5C2798.24 2538.49 2798.23 2538.49 2797.53 2535.82Z" fill="#725444" stroke="#725444"/>
<path d="M2043 1616.3C2016.05 1615.09 1987.67 1607.84 1964.55 1596.25C1932.89 1580.4 1904.19 1553.6 1886.28 1523.17C1873.93 1502.19 1862.53 1471.11 1860.47 1452.76C1859.09 1440.58 1859.01 1435.37 1860.16 1433.21C1861.24 1431.19 1861.07 1430.62 1858.79 1428.51C1856.48 1426.36 1856.12 1425.09 1855.53 1416.8C1855.17 1411.69 1855.02 1338.65 1855.21 1254.5L1855.55 1101.5L1858.29 1087C1863.47 1059.6 1869.88 1040.49 1881.74 1017.14C1893.44 994.101 1903.56 980.491 1923.13 961.499C1948.38 936.998 1981.01 920.043 2016.5 912.979C2030.32 910.229 2058.31 909.189 2071.5 910.936C2083.31 912.5 2098.4 916.168 2111.18 920.585C2135.48 928.98 2165.18 948.536 2183.38 968.125C2214.55 1001.69 2232.32 1040.17 2242.18 1095.5L2244.5 1108.5V1268C2244.5 1416.56 2244.38 1428.26 2242.71 1438.64C2233.79 1494.02 2210.09 1538.97 2173.65 1569.64C2138.16 1599.49 2100.84 1614.21 2055.5 1616.24C2051.65 1616.41 2046.03 1616.44 2043 1616.3Z" fill="#835946" stroke="#835946"/>
<path d="M1501.26 1608.46C1490.46 1605.26 1473.9 1598.68 1467 1594.83C1458.92 1590.33 1447 1582.87 1447 1582.32C1447 1581.82 1452.61 1585.05 1457.14 1588.17C1460.79 1590.67 1478.32 1599.25 1485 1601.8C1488.03 1602.96 1495.45 1605.46 1501.5 1607.36C1507.55 1609.27 1511.82 1610.84 1511 1610.86C1510.18 1610.88 1505.79 1609.8 1501.26 1608.46Z" fill="#816252" stroke="#816252"/>
<path d="M1536.88 1615.57C1536.54 1615.22 1531.82 1614.22 1526.38 1613.36C1516.66 1611.8 1493.7 1605.28 1483.08 1601.05C1455.24 1589.97 1428.21 1570.12 1409.27 1546.86C1399.34 1534.67 1388.22 1517.08 1382.23 1504.13C1380.31 1499.97 1377.91 1495.43 1376.91 1494.03C1372.12 1487.41 1365.03 1458.38 1362.94 1436.84C1361.27 1419.6 1362.3 1338.17 1364.32 1327.5C1366.72 1314.85 1368.69 1307.24 1372.37 1296.5C1377.9 1280.36 1385.78 1262.74 1387.11 1263.57C1387.56 1263.85 1389.13 1261.69 1390.59 1258.79C1392.06 1255.88 1394.1 1252.31 1395.13 1250.85C1396.16 1249.39 1397 1247.44 1397 1246.53C1397 1244.67 1401.25 1238.1 1407.37 1230.5C1419.3 1215.67 1453.38 1185.06 1458.02 1185.02C1458.85 1185.01 1461.55 1183.86 1464.02 1182.48C1466.48 1181.09 1474.13 1177.21 1481 1173.85C1487.88 1170.49 1493.73 1167.42 1494 1167.02C1495.51 1164.83 1519.78 1158.6 1533.23 1156.95C1547.82 1155.16 1577.73 1156.18 1591.5 1158.95C1615.92 1163.84 1641.71 1174.51 1658.91 1186.82C1703.52 1218.77 1733.4 1266.67 1744.17 1323.5C1746.03 1333.32 1746.3 1339.32 1746.72 1379.5C1747.22 1428.37 1746.65 1438.71 1742.35 1458C1738.57 1475 1733.75 1488.91 1726.59 1503.5C1715.27 1526.58 1701.64 1545.4 1683.83 1562.53C1656.46 1588.85 1626.92 1604.7 1590.5 1612.59C1580.54 1614.75 1575.02 1615.28 1558 1615.7C1546.73 1615.98 1537.22 1615.93 1536.88 1615.57ZM1392.72 1497.34C1393.21 1495.87 1389.9 1492.29 1387.37 1491.56C1385.66 1491.06 1385.1 1491.46 1384.57 1493.56C1383.68 1497.12 1385.56 1499.16 1389.34 1498.73C1391.01 1498.54 1392.53 1497.91 1392.72 1497.34ZM1399.66 1263.43C1400 1262.57 1399.73 1261.33 1395 1264.19C1395 1265.68 1399.06 1265.02 1399.66 1263.43Z" fill="#835946" stroke="#835946"/>
<path d="M1407.34 1545.75C1398.94 1536.81 1382.94 1510.56 1378.09 1497.75C1375.91 1492 1378.18 1495.35 1381.87 1503.35C1385.33 1510.84 1390.48 1519.9 1397.86 1531.5C1399.26 1533.7 1402.81 1538.54 1405.74 1542.25C1411.56 1549.59 1412.13 1550.84 1407.34 1545.75Z" fill="#816252" stroke="#816252"/>
<path d="M1395 1264.19C1395 1263.75 1395.64 1262.51 1396.43 1261.44C1397.54 1259.94 1398.14 1259.77 1399.06 1260.68C1400.74 1262.33 1399.48 1265 1397.03 1265C1395.91 1265 1395 1264.64 1395 1264.19Z" fill="#725444" stroke="#725444"/>
<path d="M1857.67 1435.15C1856.79 1428.1 1857.24 1426.81 1859.71 1429.28C1861.06 1430.63 1861.15 1431.37 1860.22 1433.22C1859.59 1434.47 1858.93 1436.85 1858.76 1438.5C1858.57 1440.44 1858.18 1439.25 1857.67 1435.15Z" fill="#725444" stroke="#725444"/>
<path d="M1387 1262.84C1387 1260.91 1396.36 1245.57 1396.77 1246.82C1396.98 1247.45 1396.28 1249.21 1395.21 1250.74C1394.13 1252.26 1392.07 1255.86 1390.61 1258.75C1387.99 1263.96 1387 1265.08 1387 1262.84Z" fill="#725444" stroke="#725444"/>
<path d="M1458 1184.63C1458 1183.74 1475.22 1174.4 1483.8 1170.64C1496.81 1164.93 1495.79 1166.49 1482.21 1173.07C1475.45 1176.34 1468.25 1180.08 1466.21 1181.37C1462.39 1183.78 1458 1185.52 1458 1184.63Z" fill="#725444" stroke="#725444"/>
<path d="M1385.11 1497.63C1384.41 1496.79 1384.19 1495.1 1384.57 1493.57C1385.1 1491.46 1385.66 1491.06 1387.37 1491.56C1389.9 1492.29 1393.21 1495.87 1392.72 1497.34C1392.16 1499.02 1386.44 1499.24 1385.11 1497.63Z" fill="#816252" stroke="#816252"/>
</svg>
