<svg width="8795" height="2277" viewBox="0 0 8795 2277" fill="none" xmlns="http://www.w3.org/2000/svg">
<path d="M1827.43 1968.43C1829 1966.79 1830.51 1965.66 1830.78 1965.94C1831.44 1966.6 1826.86 1971.42 1825.57 1971.42C1825.02 1971.42 1825.85 1970.08 1827.43 1968.43Z" fill="#815A44" stroke="#815A44"/>
<path d="M1407.31 2222.62C1408.15 2221.26 1412.11 2219.46 1420.94 2216.42C1424.51 2215.19 1428.11 2213.63 1428.94 2212.94C1429.76 2212.26 1431.98 2211.4 1433.87 2211.05C1435.76 2210.69 1438.03 2209.74 1438.91 2208.95C1439.79 2208.15 1442.13 2207.29 1444.1 2207.05C1447.8 2206.59 1453.38 2204.13 1454.38 2202.52C1454.86 2201.73 1459.1 2200.68 1464.94 2199.9C1466.68 2199.67 1469.28 2198.63 1477.12 2195.03C1480.25 2193.6 1483.24 2192.42 1483.76 2192.42C1484.63 2192.42 1492.51 2189.07 1502.44 2184.46C1504.64 2183.44 1508.01 2182.37 1509.94 2182.07C1512.5 2181.68 1512.9 2181.77 1511.44 2182.43C1484.48 2194.51 1465.47 2202.21 1435.94 2212.98C1421.91 2218.1 1409.57 2222.62 1408.52 2223.02C1407.2 2223.53 1406.83 2223.41 1407.31 2222.62Z" fill="#815A44" stroke="#815A44"/>
<path d="M1278.94 1175.32C1264.11 1173.99 1265.08 1173.69 1284.44 1173.62C1294.34 1173.58 1305.59 1173.08 1309.44 1172.5C1318.27 1171.19 1319.6 1171.17 1318.39 1172.36C1317.46 1173.27 1314.54 1173.69 1300.44 1174.93C1296.59 1175.27 1292.31 1175.68 1290.94 1175.85C1289.56 1176.02 1284.16 1175.78 1278.94 1175.32Z" fill="#815A44" stroke="#815A44"/>
<path d="M859.436 1177.79C857.786 1176.91 853.961 1176 850.936 1175.76C838.733 1174.8 821.98 1172.35 814.519 1170.44C810.172 1169.33 805.036 1168.42 803.105 1168.42C801.174 1168.42 798.883 1167.82 798.015 1167.08C797.147 1166.34 793.736 1164.73 790.436 1163.5C783.585 1160.94 784.98 1161.64 768.208 1152.37C755.239 1145.21 753.184 1143.84 754.06 1142.96C754.33 1142.69 756.192 1143.59 758.198 1144.95C764.767 1149.42 782.252 1158.24 791.436 1161.73C801.297 1165.47 820.183 1170.53 831.936 1172.56C843.16 1174.51 873.914 1174.23 887.899 1172.07C918.041 1167.39 944.189 1158.39 964.1 1145.82C966.314 1144.42 968.32 1143.47 968.558 1143.71C968.796 1143.95 966.966 1146.4 964.49 1149.15C961.052 1152.97 959.091 1154.3 956.19 1154.77C954.101 1155.1 950.918 1156.46 949.118 1157.79C947.087 1159.29 943.728 1160.47 940.27 1160.9C937.204 1161.28 932.613 1162.5 930.066 1163.59C927.519 1164.69 921.611 1166.46 916.936 1167.52C899.774 1171.42 889.654 1173.42 887.142 1173.42C885.726 1173.42 882.564 1174.39 880.115 1175.58C876.552 1177.3 875.293 1177.5 873.813 1176.58C871.388 1175.06 869.94 1175.12 868.015 1176.8C865.339 1179.15 862.567 1179.47 859.436 1177.79Z" fill="#815A44" stroke="#815A44"/>
<path d="M1194.45 1158.44C1193.44 1157.32 1192.91 1156.11 1193.28 1155.75C1193.64 1155.38 1193.26 1154.03 1192.42 1152.75C1190.52 1149.85 1191.26 1149.88 1196.94 1152.92C1199.41 1154.25 1200.65 1155.35 1199.7 1155.38C1198.52 1155.41 1198.04 1156.12 1198.2 1157.56C1198.52 1160.47 1196.68 1160.91 1194.45 1158.44Z" fill="#815A44" stroke="#815A44"/>
<path d="M1728.55 2052.74C1738.4 2043.83 1757.75 2028.91 1758.5 2029.65C1759.04 2030.19 1728.44 2054.76 1726.64 2055.24C1725.98 2055.42 1726.84 2054.3 1728.55 2052.74Z" fill="#815A44" stroke="#815A44"/>
<path d="M426.09 2052.27C419.973 2047.75 415.147 2043.88 415.366 2043.66C416.023 2043 419.603 2045.22 428.246 2051.64C438.161 2059 438.444 2059.25 437.757 2059.93C437.457 2060.23 432.207 2056.78 426.09 2052.27Z" fill="#815A44" stroke="#815A44"/>
<path d="M1815.94 1978.92C1818.37 1976.45 1820.8 1974.42 1821.35 1974.42C1821.9 1974.42 1820.37 1976.45 1817.94 1978.92C1815.51 1981.4 1813.07 1983.42 1812.52 1983.42C1811.97 1983.42 1813.51 1981.4 1815.94 1978.92Z" fill="#815A44" stroke="#815A44"/>
<path d="M1209.44 1159.99C1202.86 1156.82 1205.12 1156.71 1212.06 1159.86C1215.02 1161.21 1216.76 1162.33 1215.94 1162.35C1215.11 1162.38 1212.19 1161.31 1209.44 1159.99Z" fill="#815A44" stroke="#815A44"/>
<path d="M1622.94 2123.59C1622.94 2122.25 1626.93 2117.42 1628.04 2117.42C1628.57 2117.42 1632.07 2115.4 1635.83 2112.92C1639.59 2110.45 1643.01 2108.42 1643.43 2108.42C1645.12 2108.42 1656.94 2102.08 1658.54 2100.31C1659.48 2099.27 1660.58 2098.42 1660.99 2098.42C1661.4 2098.42 1663.31 2096.85 1665.24 2094.92C1667.16 2093 1669.4 2091.42 1675.44 2088.42C1676.13 2088.42 1678.82 2086.48 1681.4 2084.11C1683.99 2081.73 1688.2 2078.69 1690.77 2077.36C1695.75 2074.76 1697.02 2073.86 1709.44 2064.07C1715.12 2059.59 1718.6 2057.58 1721.44 2057.14L1725.44 2056.52L1722.94 2058.6C1713.18 2066.72 1661.54 2101.69 1642.25 2113.23C1624.06 2124.12 1622.94 2124.72 1622.94 2123.59Z" fill="#815A44" stroke="#815A44"/>
<path d="M42.542 987.172C43.63 985.292 56.7439 969.826 58.4499 968.41C61.5919 965.803 59.955 971.395 56.436 975.29C54.511 977.421 52.936 979.642 52.936 980.226C52.936 981.566 44.644 988.422 43.024 988.422C42.34 988.422 42.131 987.881 42.542 987.172Z" fill="#815A44" stroke="#815A44"/>
<path d="M1764.94 2024.04C1764.94 2023.74 1767.75 2021.16 1771.19 2018.31C1774.62 2015.46 1780.36 2010.53 1783.94 2007.36C1803.49 1990.04 1806.52 1987.47 1807.44 1987.48C1808.6 1987.49 1803.15 1992.49 1782.15 2010.68C1767.7 2023.19 1764.94 2025.34 1764.94 2024.04Z" fill="#815A44" stroke="#815A44"/>
<path d="M329.4 1969.92C322.27 1963.1 316.886 1957.52 317.436 1957.51C318.805 1957.49 343.57 1981.09 342.9 1981.78C342.605 1982.08 336.53 1976.75 329.4 1969.92Z" fill="#815A44" stroke="#815A44"/>
<path d="M2304.44 1434.48C2303.34 1434.04 2299.06 1433.38 2294.94 1433.02C2283 1431.99 2271.58 1430.32 2269.7 1429.33C2268.75 1428.83 2266.92 1428.42 2265.64 1428.42C2264.36 1428.42 2262.45 1427.76 2261.38 1426.95C2260.31 1426.15 2258.52 1425.47 2257.41 1425.45C2256.29 1425.44 2254.49 1424.81 2253.41 1424.06C2252.32 1423.32 2249.67 1422.38 2247.5 1421.98C2245.34 1421.59 2241.98 1419.96 2240.05 1418.37C2236.81 1415.69 2236.41 1415.59 2234.78 1417.07C2233.14 1418.54 2232.67 1418.36 2228.33 1414.54C2225.76 1412.27 2223.24 1410.42 2222.74 1410.42C2222.23 1410.42 2219.75 1408.85 2217.23 1406.92C2214.71 1405 2212.29 1403.42 2211.86 1403.42C2211.43 1403.42 2208.02 1400.51 2204.29 1396.96C2200.56 1393.41 2196.59 1390.37 2195.47 1390.21C2194.35 1390.05 2193.42 1389.25 2193.41 1388.42C2193.39 1387.6 2192.27 1385.72 2190.91 1384.25C2186.66 1379.65 2183.94 1375.67 2183.94 1374.04C2183.94 1373.17 2182.81 1371.73 2181.44 1370.83C2179.99 1369.88 2178.94 1368.24 2178.94 1366.93C2178.94 1365.68 2178.23 1364.08 2177.37 1363.37C2176.51 1362.65 2175.09 1360.68 2174.22 1358.99C2173.35 1357.3 2171.81 1355.34 2170.8 1354.63C2169.5 1353.71 2169.08 1352.4 2169.34 1350.13C2169.55 1348.36 2169.77 1346.25 2169.85 1345.42C2169.92 1344.6 2170.8 1345.72 2171.8 1347.92C2175.1 1355.2 2184.99 1370.35 2191.89 1378.73C2211.62 1402.67 2246.58 1422.99 2278.17 1428.89C2309.81 1434.8 2337.82 1431.16 2366.44 1417.42C2380.3 1410.77 2392.51 1401.84 2405.46 1388.92C2424.09 1370.32 2437.45 1347.52 2444.43 1322.42C2445.73 1317.75 2446.82 1315.06 2446.86 1316.46C2446.9 1317.86 2446.26 1321.59 2445.44 1324.76C2444.61 1327.93 2443.94 1331.4 2443.94 1332.47C2443.94 1333.54 2442.42 1337.46 2440.57 1341.17C2438.72 1344.88 2436.19 1350.62 2434.95 1353.92C2431.09 1364.19 2429.43 1367.25 2425.56 1371.29C2424.12 1372.8 2422.94 1374.71 2422.94 1375.54C2422.94 1376.37 2421.59 1378.34 2419.94 1379.92C2418.29 1381.5 2416.94 1383.62 2411.37 1389.74C2411.08 1390.49 2407.75 1393.45 2403.97 1396.32C2400.19 1399.2 2396.87 1402.15 2396.59 1402.88C2395.5 1405.72 2375.21 1417.42 2371.39 1417.42C2370.55 1417.42 2368.8 1418.12 2367.5 1418.97C2366.2 1419.82 2362.95 1421.36 2360.29 1422.39C2357.62 1423.41 2352.21 1425.6 2348.26 1427.26C2344.32 1428.92 2340.21 1430.04 2339.13 1429.76C2338.05 1429.48 2335.7 1430.01 2333.91 1430.94C2331.77 1432.04 2327.32 1432.78 2321.04 1433.08C2315.76 1433.33 2311.01 1433.96 2310.49 1434.48C2309.36 1435.6 2307.19 1435.6 2304.44 1434.48Z" fill="#815A44" stroke="#815A44"/>
<path d="M1359.67 1165.33C1358.69 1164.76 1357.01 1164.58 1355.93 1164.92C1354.84 1165.27 1353.06 1164.92 1351.97 1164.16C1350.12 1162.86 1350.35 1162.65 1355.52 1161.03C1362.9 1158.7 1380.81 1149.64 1389.21 1143.98C1395.97 1139.43 1397.54 1138.64 1396.51 1140.3C1395.62 1141.74 1381.85 1150.73 1376.44 1153.42C1373.69 1154.78 1371.08 1156.46 1370.64 1157.16C1370.2 1157.85 1369.3 1158.44 1368.64 1158.45C1366.56 1158.51 1363.1 1162.03 1363.27 1163.91C1363.47 1166.12 1362.02 1166.69 1359.67 1165.33Z" fill="#815A44" stroke="#815A44"/>
<path d="M1058.44 2275.31C1043.04 2274.98 1027.29 2274.42 1023.44 2274.06C1019.59 2273.71 1007.66 2272.72 996.936 2271.86C970.937 2269.79 928.761 2264.87 911.385 2261.89C860.599 2253.17 798.639 2238.06 757.936 2224.46C677.327 2197.52 604.135 2164.51 529.998 2121.65C493.675 2100.65 439.506 2064.35 437.942 2059.96C437.255 2058.03 420.292 2045.47 415.936 2043.67C411.994 2042.03 400.287 2032.8 378.939 2014.47C356.974 1995.62 343.506 1983.35 342.81 1981.54C342.056 1979.59 318.531 1957.42 317.211 1957.42C316.127 1957.42 312.529 1953.59 311.574 1951.42C309.821 1947.44 307.063 1943.81 304.997 1942.77C302.314 1941.43 292.936 1932.39 292.936 1931.15C292.936 1930.68 288.211 1925.75 282.436 1920.19C276.661 1914.63 271.936 1909.7 271.936 1909.23C271.936 1907.96 259.298 1891.6 254.29 1886.39C251.896 1883.89 249.936 1881.38 249.936 1880.8C249.936 1880.22 247.911 1877.85 245.436 1875.53C242.961 1873.21 240.936 1870.62 240.936 1869.78C240.936 1868.94 239.361 1866.86 237.436 1865.15C235.511 1863.45 233.936 1861.48 229.936 1855.93C229.936 1855.15 227.84 1853.47 225.279 1852.19C220.319 1849.72 219.869 1849.15 217.945 1842.92C217.266 1840.72 215.266 1837.35 213.501 1835.42C211.736 1833.5 209.527 1830.68 208.591 1829.17C207.655 1827.66 206.043 1826.42 205.008 1826.42C200.69 1826.42 172.163 1783.21 133.797 1718.55C121.732 1698.22 86.0232 1623.65 73.4012 1592.42C64.3102 1569.93 39.6262 1494.24 32.4452 1466.83C30.4402 1459.18 27.4882 1447.97 25.8852 1441.92C20.7942 1422.71 18.1862 1407.6 18.4612 1398.92C18.7052 1391.23 17.2352 1385.42 15.0482 1385.42C13.9322 1385.42 11.6842 1366.06 12.0302 1359.42C12.1022 1358.05 12.1012 1356.02 12.0282 1354.92C11.9552 1353.82 11.8932 1351.6 11.8902 1349.99C11.8872 1348.38 11.3852 1346.46 10.7762 1345.73C10.1112 1344.93 9.90919 1342.64 10.2702 1340C10.7092 1336.8 10.4772 1335.29 9.4132 1334.4C8.4852 1333.63 8.17823 1332.3 8.56823 1330.75C8.99523 1329.05 8.55623 1327.64 7.12523 1326.12C2.46623 1321.14 0.475232 1284.56 0.500232 1204.42C0.521232 1137.43 1.87118 1094.19 4.43218 1078.42C7.89618 1057.1 16.9582 1029.49 26.0722 1012.48C32.6072 1000.28 40.7382 988.422 42.5612 988.422C44.5222 988.422 52.9362 981.775 52.9362 980.226C52.9362 979.642 54.5112 977.421 56.4362 975.29C58.3612 973.159 59.9362 970.391 59.9362 969.137C59.9362 967.513 62.6622 964.452 69.4162 958.492C90.8742 939.558 105.567 930.564 130.45 921.131C152.213 912.881 168.621 909.553 192.936 908.458C214.75 907.476 678.096 907.223 679.608 908.192C680.473 908.747 680.896 924.243 681.224 967.433C681.704 1030.61 681.849 1032.52 687.573 1051.42C696.272 1080.15 711.042 1103.95 733.159 1124.87C739.327 1130.7 746.496 1136.93 749.09 1138.7C751.684 1140.47 753.99 1142.6 754.216 1143.42C754.545 1144.63 765.292 1151.01 782.589 1160.27C783.605 1160.82 787.136 1162.27 790.436 1163.5C793.736 1164.73 797.147 1166.34 798.015 1167.08C798.883 1167.82 801.174 1168.42 803.105 1168.42C805.036 1168.42 810.172 1169.33 814.519 1170.44C821.944 1172.34 838.528 1174.77 850.936 1175.77C853.961 1176.01 857.849 1176.94 859.575 1177.84C862.79 1179.5 865.088 1179.11 869.121 1176.22C870.447 1175.27 871.336 1175.3 873.293 1176.34C875.466 1177.51 876.334 1177.41 880.173 1175.55C882.59 1174.38 885.726 1173.42 887.142 1173.42C889.654 1173.42 899.774 1171.42 916.936 1167.52C921.611 1166.46 927.519 1164.69 930.066 1163.59C932.613 1162.5 937.204 1161.28 940.27 1160.9C943.728 1160.47 947.087 1159.29 949.118 1157.79C950.918 1156.46 954.083 1155.1 956.152 1154.77C958.923 1154.33 960.904 1153.04 963.675 1149.88C965.744 1147.52 968.577 1144.32 969.972 1142.76C971.367 1141.2 976.724 1136.55 981.876 1132.42C1006.4 1112.78 1028.15 1079.51 1036.79 1048.42C1042.01 1029.62 1042.23 1026.51 1042.85 965.422L1043.44 907.922H1072.94H1102.44L1102.99 965.422C1103.46 1014.05 1103.81 1024.31 1105.26 1031.92C1112.27 1068.56 1126.29 1095.04 1152.36 1120.92C1164.38 1132.85 1179.6 1144.58 1188.09 1148.44C1190.79 1149.68 1193.92 1154.23 1193.28 1155.99C1192.73 1157.5 1196.57 1160.76 1200.3 1155.42C1201.67 1155.42 1203.48 1156.11 1204.32 1156.95C1206.29 1158.91 1213.88 1162.37 1216.29 1162.4C1217.31 1162.41 1222.71 1163.74 1228.29 1165.36C1239.79 1168.68 1258.37 1172.42 1263.4 1172.42C1265.25 1172.42 1266.92 1172.84 1267.1 1173.35C1267.61 1174.74 1288.6 1176.18 1296.5 1175.36C1300.31 1174.96 1306.55 1174.35 1310.35 1174.01C1314.16 1173.67 1317.84 1172.91 1318.55 1172.33C1319.25 1171.75 1322.66 1170.62 1326.13 1169.84C1329.6 1169.05 1336.34 1167.22 1341.11 1165.78C1346.73 1164.08 1350.43 1163.44 1351.61 1163.98C1352.62 1164.43 1354.79 1164.9 1356.44 1165.02C1358.09 1165.13 1360.34 1165.38 1361.44 1165.57C1362.9 1165.83 1363.39 1165.41 1363.27 1164.01C1363.1 1162.05 1366.51 1158.51 1368.64 1158.45C1369.3 1158.44 1370.2 1157.85 1370.64 1157.16C1371.08 1156.46 1373.69 1154.78 1376.44 1153.42C1383.79 1149.78 1393.04 1143.31 1399.54 1137.26C1402.68 1134.32 1408.61 1128.77 1412.71 1124.92C1421.78 1116.39 1436.01 1097.76 1442.41 1086.03C1451.62 1069.13 1458.07 1050.75 1462.17 1029.67C1464.11 1019.74 1464.3 1014.71 1464.67 963.739L1465.07 908.556L1474.75 908.147C1494.47 907.315 2299 907.611 2313.99 908.456C2355.04 910.769 2399.4 922.604 2436.25 941.067C2472.32 959.145 2496.72 976.027 2524.83 1002.35C2553.18 1028.91 2573.9 1056.74 2595.61 1097.42C2610.2 1124.77 2618.65 1146.73 2626.87 1178.65C2634.95 1210.05 2637.94 1234.32 2637.92 1268.12C2637.87 1323.77 2628.3 1370.93 2607.22 1419.42C2601.12 1433.45 2584.1 1463.79 2573.83 1478.92C2537.7 1532.19 2484.46 1575.45 2422.55 1601.85C2410.5 1607 2374.7 1618.08 2359.94 1621.24C2336.59 1626.24 2329.09 1626.89 2294.94 1626.88C2266.67 1626.87 2260.35 1626.58 2246.44 1624.62C2219.93 1620.89 2192.85 1613.64 2165.34 1602.9C2146.34 1595.48 2139.52 1592.15 2136.41 1588.8C2135.16 1587.45 2131.7 1585.48 2128.73 1584.44C2122.73 1582.33 2111.51 1576.21 2102.62 1570.19C2099.42 1568.03 2096.21 1566.49 2095.48 1566.77C2094.75 1567.04 2093.36 1569.44 2092.39 1572.1C2088.07 1583.89 2083.61 1594.19 2081.43 1597.42C2080.13 1599.35 2078.77 1602.27 2078.42 1603.92C2076.87 1611.09 2074.5 1616.42 2072.86 1616.42C2069.92 1616.42 2068.51 1619.39 2068.41 1625.86C2068.31 1631.82 2067.6 1633.51 2051.22 1666.5C2033.6 1701.99 2013.25 1737.27 1986.95 1777.92C1971.99 1801.05 1969.87 1804.06 1948.57 1832.42C1927.24 1860.82 1908.12 1884.48 1889.97 1904.92C1871.06 1926.21 1831.98 1966.57 1830.92 1965.91C1830.45 1965.62 1828.37 1967.42 1826.29 1969.9C1824.21 1972.39 1821.96 1974.42 1821.29 1974.42C1820.61 1974.42 1817.45 1977.35 1814.25 1980.92C1811.05 1984.5 1807.99 1987.43 1807.44 1987.44C1806.52 1987.46 1802.37 1990.98 1783.59 2007.69C1779.83 2011.04 1774.65 2015.45 1772.09 2017.49C1769.53 2019.53 1765.95 2023.05 1764.14 2025.31C1762.33 2027.57 1760.14 2029.42 1759.29 2029.42C1757.03 2029.42 1737.09 2044.64 1728.05 2053.27C1725.98 2055.24 1723.1 2056.84 1720.99 2057.19C1718.7 2057.56 1714.58 2060.01 1709.44 2064.07C1697.02 2073.86 1695.75 2074.76 1690.77 2077.36C1688.2 2078.69 1683.99 2081.73 1681.4 2084.11C1678.82 2086.48 1676.13 2088.42 1670.21 2091.42C1669.4 2091.42 1667.16 2093 1665.24 2094.92C1663.31 2096.85 1661.4 2098.42 1660.99 2098.42C1660.58 2098.42 1659.48 2099.27 1658.54 2100.31C1656.94 2102.08 1645.12 2108.42 1643.43 2108.42C1643.01 2108.42 1639.67 2110.33 1636.02 2112.67C1632.36 2115.01 1628.48 2117.4 1627.4 2117.99C1626.32 2118.57 1624.76 2120.42 1623.94 2122.1C1622.98 2124.04 1620.08 2126.51 1615.94 2128.91C1600.27 2137.96 1578.51 2149.63 1567.44 2154.93C1560.84 2158.09 1554.31 2161.29 1552.94 2162.04C1546.68 2165.47 1519.35 2178.68 1514.86 2180.45C1512.11 2181.54 1508.84 2182.42 1507.6 2182.42C1506.35 2182.42 1504.91 2182.85 1504.39 2183.37C1503.42 2184.33 1491.66 2189.45 1484.44 2192.07C1482.24 2192.86 1478.43 2194.44 1475.97 2195.58C1469.55 2198.53 1466.64 2199.68 1464.94 2199.9C1459.1 2200.68 1454.86 2201.73 1454.38 2202.52C1453.38 2204.13 1447.8 2206.59 1444.1 2207.05C1442.13 2207.29 1439.79 2208.15 1438.91 2208.95C1438.03 2209.74 1435.76 2210.69 1433.87 2211.05C1431.98 2211.4 1429.76 2212.26 1428.94 2212.94C1428.11 2213.63 1424.51 2215.19 1420.94 2216.42C1414.4 2218.67 1409.71 2220.68 1406.94 2222.42C1402.78 2225.02 1393.83 2227.97 1365.94 2235.94C1314.61 2250.6 1252.82 2263.28 1207.94 2268.37C1154.29 2274.45 1111.16 2276.46 1058.44 2275.31ZM710.464 2122.39C712.188 2120.48 712.198 2120.26 705.891 2122.87C707.579 2124.9 708.256 2124.83 710.464 2122.39ZM678.44 2117.42C680.356 2116.69 680.987 2115.83 680.755 2114.25C680.295 2111.12 678.67 2111.01 675.553 2113.9C671.584 2117.58 673.115 2119.44 678.44 2117.42ZM695.686 2108.67C696.233 2107.03 693.1 2105.86 691.756 2107.2C691.181 2107.78 691.028 2108.76 691.416 2109.39C692.3 2110.82 695.129 2110.34 695.686 2108.67ZM2310.49 1434.48C2311.01 1433.96 2315.76 1433.33 2321.04 1433.08C2327.32 1432.78 2331.77 1432.04 2333.91 1430.94C2335.7 1430.01 2338.05 1429.48 2339.13 1429.76C2340.21 1430.04 2344.32 1428.92 2348.26 1427.26C2352.21 1425.6 2357.62 1423.41 2360.29 1422.39C2362.95 1421.36 2366.2 1419.82 2367.5 1418.97C2368.8 1418.12 2370.55 1417.42 2371.39 1417.42C2375.21 1417.42 2395.5 1405.72 2396.59 1402.88C2396.87 1402.15 2400.19 1399.2 2403.97 1396.32C2407.75 1393.45 2411.08 1390.49 2416.94 1384.63C2416.94 1383.62 2418.29 1381.5 2419.94 1379.92C2421.59 1378.34 2422.94 1376.37 2422.94 1375.54C2422.94 1374.71 2424.12 1372.8 2425.56 1371.29C2429.43 1367.25 2431.08 1364.19 2434.95 1353.92C2436.19 1350.62 2438.56 1345.22 2440.23 1341.92C2443.25 1335.94 2443.86 1333.7 2445.83 1321.42C2449.14 1300.86 2449.43 1296.68 2449.35 1271.92C2449.27 1247.88 2449.07 1244.98 2446.63 1233.36C2439.98 1201.61 2427.8 1176.89 2409.15 1157.3C2377 1123.51 2340.44 1107.94 2297.44 1109.74C2268.65 1110.94 2249.49 1117.1 2226.27 1132.62C2200.7 1149.72 2179.93 1175.5 2168.82 1203.91C2166.86 1208.92 2165.59 1210.91 2164.31 1210.91C2162.27 1210.92 2160.63 1216.4 2161.5 1220.27C2161.79 1221.56 2161.11 1227.18 2160 1232.77C2157.19 1246.86 2155.8 1271.99 2156.91 1288.54C2158 1304.84 2160.73 1318.42 2165.59 1331.86C2168.1 1338.77 2169.27 1343.74 2169.34 1347.75C2169.41 1351.84 2169.91 1353.92 2171.03 1354.75C2171.91 1355.39 2173.34 1357.3 2174.22 1358.99C2175.09 1360.68 2176.51 1362.65 2177.37 1363.37C2178.23 1364.08 2178.94 1365.68 2178.94 1366.93C2178.94 1368.24 2179.99 1369.88 2181.44 1370.83C2182.81 1371.73 2183.94 1373.17 2183.94 1374.04C2183.94 1375.67 2186.66 1379.65 2190.91 1384.25C2192.27 1385.72 2193.39 1387.6 2193.41 1388.42C2193.42 1389.25 2194.35 1390.05 2195.47 1390.21C2196.59 1390.37 2200.56 1393.41 2204.29 1396.96C2208.02 1400.51 2211.43 1403.42 2211.86 1403.42C2212.29 1403.42 2214.71 1405 2217.23 1406.92C2219.75 1408.85 2222.23 1410.42 2222.74 1410.42C2223.24 1410.42 2225.76 1412.27 2228.33 1414.54C2232.67 1418.36 2233.14 1418.54 2234.78 1417.07C2236.41 1415.59 2236.81 1415.69 2240.05 1418.37C2241.98 1419.96 2245.34 1421.59 2247.5 1421.98C2249.67 1422.38 2252.32 1423.32 2253.41 1424.06C2254.49 1424.81 2256.29 1425.44 2257.41 1425.45C2258.52 1425.47 2260.31 1426.15 2261.38 1426.95C2262.45 1427.76 2264.36 1428.42 2265.64 1428.42C2266.92 1428.42 2268.75 1428.83 2269.7 1429.33C2271.58 1430.32 2283 1431.99 2294.94 1433.02C2299.06 1433.38 2303.34 1434.04 2304.44 1434.48C2307.19 1435.6 2309.36 1435.6 2310.49 1434.48Z" fill="#815A44" stroke="#815A44"/>
<path d="M2131.13 1587.29C2128.22 1585.59 2126.01 1584.02 2126.23 1583.8C2126.92 1583.11 2134.04 1586.44 2136.23 1588.48C2139.26 1591.31 2137.2 1590.82 2131.13 1587.29Z" fill="#815A44" stroke="#815A44"/>
<path d="M2161.61 1221.03C2160.77 1218.83 2161.86 1211.58 2163.16 1210.79C2165.44 1209.38 2165.86 1212.29 2164.12 1217.41C2162.77 1221.38 2162.11 1222.33 2161.61 1221.03Z" fill="#815A44" stroke="#815A44"/>
<path d="M705.891 2122.87C704.813 2121.57 704.955 2120.96 710.464 2122.39C708.256 2124.83 707.579 2124.9 705.891 2122.87Z" fill="#815A44" stroke="#815A44"/>
<path d="M15.647 1395.97C14.706 1391.4 13.936 1387.15 13.936 1386.54C13.936 1384.63 15.804 1385.31 17.077 1387.67C18.491 1390.3 19.352 1403.05 18.165 1403.78C17.72 1404.05 16.588 1400.54 15.647 1395.97Z" fill="#815A44" stroke="#815A44"/>
<path d="M294.834 1935.67C285.815 1926.44 274.148 1914.13 268.907 1908.32C259.777 1898.2 221.936 1852.09 221.936 1851.09C221.936 1850.82 223.736 1851.47 225.936 1852.54C228.136 1853.6 229.936 1855.12 233.936 1860.77C233.936 1861.48 235.511 1863.45 237.436 1865.15C239.361 1866.86 240.936 1868.94 240.936 1869.78C240.936 1870.62 242.961 1873.21 245.436 1875.53C247.911 1877.85 249.936 1880.22 249.936 1880.8C249.936 1881.38 251.896 1883.89 254.29 1886.39C259.298 1891.6 271.936 1907.96 271.936 1909.23C271.936 1909.7 276.661 1914.63 282.436 1920.19C288.211 1925.75 292.936 1930.68 292.936 1931.15C292.936 1932.4 302.335 1941.44 305.054 1942.79C306.342 1943.44 307.873 1944.92 308.455 1946.09C309.037 1947.25 310.124 1948.94 310.868 1949.84C311.612 1950.74 311.998 1951.69 311.726 1951.96C311.454 1952.24 303.853 1944.9 294.834 1935.67Z" fill="#815A44" stroke="#815A44"/>
<path d="M691.416 2109.39C691.028 2108.76 691.181 2107.78 691.756 2107.2C693.1 2105.86 696.233 2107.03 695.686 2108.67C695.129 2110.34 692.3 2110.82 691.416 2109.39Z" fill="#815A44" stroke="#815A44"/>
<path d="M211.006 1837.08C207.118 1831.84 203.936 1827.3 203.936 1826.99C203.936 1825.31 207.126 1826.8 208.591 1829.17C209.527 1830.68 211.717 1833.5 213.458 1835.42C216.706 1839.01 219.647 1845.04 218.64 1846.05C218.329 1846.36 214.894 1842.33 211.006 1837.08Z" fill="#815A44" stroke="#815A44"/>
<path d="M10.5991 1367.17C7.93906 1350.59 4.93604 1328.6 4.93604 1325.72C4.93604 1324.33 5.22305 1324.37 7.01605 1325.99C8.50505 1327.34 8.94304 1328.64 8.55804 1330.56C8.22304 1332.23 8.55804 1333.69 9.44604 1334.43C10.474 1335.28 10.704 1336.84 10.27 1340C9.90902 1342.64 10.1111 1344.93 10.7761 1345.73C11.3851 1346.46 11.887 1348.38 11.89 1349.99C11.893 1351.6 11.955 1353.82 12.028 1354.92C12.101 1356.02 12.095 1358.05 12.015 1359.42C11.823 1362.71 12.5 1371.6 13.441 1378.17C13.855 1381.06 13.972 1383.42 13.7 1383.42C13.428 1383.42 12.0331 1376.11 10.5991 1367.17Z" fill="#815A44" stroke="#815A44"/>
<path d="M2078.01 1605.64C2077.91 1603.83 2080.86 1597.01 2081.47 1597.62C2081.75 1597.9 2081.1 1600.11 2080.03 1602.53C2078.96 1604.94 2078.05 1606.34 2078.01 1605.64Z" fill="#815A44" stroke="#815A44"/>
<path d="M673.439 2117.43C672.687 2116.21 677.858 2111.23 678.44 2117.42C675.136 2118.68 674.212 2118.68 673.439 2117.43Z" fill="#815A44" stroke="#815A44"/>
<path d="M2068.46 1626.24C2067.32 1621.92 2069.65 1616.42 2072.63 1616.42C2074.22 1616.42 2073.9 1618.03 2070.91 1624.92C2069.17 1628.91 2069.17 1628.91 2068.46 1626.24Z" fill="#815A44" stroke="#815A44"/>
<path d="M1313.94 706.724C1286.99 705.509 1258.61 698.257 1235.49 686.676C1203.83 670.821 1175.13 644.022 1157.21 613.589C1144.87 592.615 1133.47 561.529 1131.4 543.182C1130.03 531.003 1129.95 525.796 1131.1 523.628C1132.17 521.614 1132 521.04 1129.73 518.928C1127.41 516.784 1127.06 515.507 1126.47 507.222C1126.11 502.107 1125.96 429.072 1126.15 344.922L1126.48 191.922L1129.22 177.422C1134.41 150.019 1140.82 130.916 1152.68 107.562C1164.38 84.5229 1174.5 70.9129 1194.07 51.921C1219.32 27.42 1251.94 10.4649 1287.44 3.40093C1301.26 0.650934 1329.24 -0.389096 1342.44 1.3579C1354.25 2.9219 1369.33 6.58995 1382.12 11.007C1406.41 19.402 1436.11 38.9579 1454.31 58.5469C1485.49 92.1079 1503.26 130.596 1513.12 185.922L1515.44 198.922V358.422C1515.44 506.98 1515.31 518.686 1513.64 529.061C1504.73 584.445 1481.03 629.396 1444.59 660.057C1409.1 689.915 1371.78 704.635 1326.44 706.659C1322.59 706.831 1316.96 706.86 1313.94 706.724Z" fill="#815A44" stroke="#815A44"/>
<path d="M772.198 698.88C761.394 695.685 744.835 689.098 737.936 685.252C729.858 680.748 717.936 673.288 717.936 672.737C717.936 672.237 723.542 675.472 728.078 678.589C731.723 681.094 749.255 689.674 755.936 692.224C758.961 693.378 766.386 695.881 772.436 697.785C778.486 699.689 782.761 701.262 781.936 701.281C781.111 701.3 776.729 700.22 772.198 698.88Z" fill="#815A44" stroke="#815A44"/>
<path d="M807.819 705.995C807.48 705.642 802.755 704.645 797.319 703.778C787.594 702.227 764.638 695.704 754.016 691.475C726.175 680.389 699.142 660.542 680.209 637.285C670.28 625.089 659.154 607.504 653.168 594.549C651.247 590.39 648.85 585.848 647.842 584.455C643.053 577.837 635.962 548.803 633.875 527.258C632.205 510.024 633.233 428.594 635.255 417.922C637.652 405.268 639.627 397.665 643.306 386.922C648.834 370.778 656.715 353.167 658.044 353.989C658.495 354.268 660.064 352.117 661.529 349.209C662.994 346.301 665.034 342.728 666.064 341.268C667.093 339.808 667.936 337.864 667.936 336.948C667.936 335.096 672.187 328.523 678.302 320.922C690.231 306.093 724.313 275.487 728.952 275.438C729.785 275.429 732.485 274.286 734.952 272.899C737.418 271.512 745.061 267.629 751.936 264.272C758.811 260.915 764.661 257.842 764.936 257.443C766.446 255.255 790.714 249.027 804.165 247.375C818.754 245.583 848.661 246.607 862.436 249.369C886.852 254.265 912.641 264.93 929.842 277.246C974.454 309.189 1004.34 357.094 1015.1 413.922C1016.96 423.744 1017.24 429.74 1017.65 469.922C1018.16 518.795 1017.59 529.135 1013.29 548.422C1009.5 565.425 1004.69 579.335 997.529 593.922C986.207 617.001 972.571 635.824 954.761 652.956C927.398 679.277 897.854 695.125 861.436 703.016C851.474 705.174 845.954 705.702 828.936 706.126C817.661 706.407 808.159 706.348 807.819 705.995ZM663.655 587.765C664.146 586.291 660.835 582.711 658.302 581.978C656.593 581.483 656.037 581.884 655.509 583.987C654.616 587.544 656.499 589.583 660.276 589.152C661.944 588.962 663.464 588.337 663.655 587.765ZM670.6 353.855C670.931 352.993 670.661 351.756 665.936 354.613C665.936 356.102 669.991 355.443 670.6 353.855Z" fill="#815A44" stroke="#815A44"/>
<path d="M678.273 636.172C669.871 627.235 653.873 600.979 649.026 588.172C646.848 582.418 649.112 585.767 652.809 593.769C656.27 601.26 661.413 610.318 668.794 621.922C670.193 624.122 673.742 628.959 676.68 632.672C682.493 640.017 683.061 641.265 678.273 636.172Z" fill="#815A44" stroke="#815A44"/>
<path d="M665.936 354.613C665.936 354.168 666.581 352.931 667.369 351.863C668.474 350.365 669.075 350.193 670.001 351.105C671.672 352.752 670.414 355.422 667.967 355.422C666.85 355.422 665.936 355.058 665.936 354.613Z" fill="#815A44" stroke="#815A44"/>
<path d="M1128.6 525.567C1127.73 518.52 1128.17 517.232 1130.64 519.702C1131.99 521.051 1132.09 521.791 1131.16 523.642C1130.52 524.896 1129.87 527.272 1129.7 528.922C1129.5 530.859 1129.11 529.671 1128.6 525.567Z" fill="#815A44" stroke="#815A44"/>
<path d="M657.936 353.26C657.936 351.335 667.293 335.994 667.708 337.239C667.92 337.874 667.216 339.636 666.143 341.157C665.07 342.678 663.002 346.285 661.547 349.172C658.923 354.379 657.936 355.497 657.936 353.26Z" fill="#815A44" stroke="#815A44"/>
<path d="M728.936 275.053C728.936 274.164 746.159 264.824 754.734 261.062C767.746 255.354 766.73 256.908 753.147 263.491C746.388 266.766 739.188 270.5 737.147 271.788C733.328 274.198 728.936 275.944 728.936 275.053Z" fill="#815A44" stroke="#815A44"/>
<path d="M656.047 588.056C655.349 587.215 655.125 585.519 655.509 583.987C656.037 581.884 656.593 581.483 658.302 581.978C660.835 582.711 664.146 586.291 663.655 587.765C663.095 589.444 657.38 589.663 656.047 588.056Z" fill="#815A44" stroke="#815A44"/>
<path d="M4921.43 1968.43C4923 1966.79 4924.51 1965.66 4924.78 1965.94C4925.44 1966.6 4920.86 1971.42 4919.58 1971.42C4919.02 1971.42 4919.85 1970.08 4921.43 1968.43Z" fill="#815A44" stroke="#815A44"/>
<path d="M4501.31 2222.62C4502.16 2221.26 4506.11 2219.46 4514.94 2216.42C4518.51 2215.19 4522.11 2213.63 4522.94 2212.94C4523.76 2212.26 4525.98 2211.4 4527.87 2211.05C4529.76 2210.69 4532.03 2209.74 4532.91 2208.95C4533.79 2208.15 4536.13 2207.29 4538.1 2207.05C4541.8 2206.59 4547.38 2204.13 4548.38 2202.52C4548.86 2201.73 4553.1 2200.68 4558.94 2199.9C4560.68 2199.67 4563.28 2198.63 4571.12 2195.03C4574.25 2193.6 4577.24 2192.42 4577.76 2192.42C4578.63 2192.42 4586.51 2189.07 4596.44 2184.46C4598.64 2183.44 4602.01 2182.37 4603.94 2182.07C4606.5 2181.68 4606.9 2181.77 4605.44 2182.43C4578.48 2194.51 4559.48 2202.21 4529.94 2212.98C4515.91 2218.1 4503.58 2222.62 4502.52 2223.02C4501.2 2223.53 4500.83 2223.41 4501.31 2222.62Z" fill="#815A44" stroke="#815A44"/>
<path d="M4372.94 1175.32C4358.11 1173.99 4359.08 1173.69 4378.44 1173.62C4388.34 1173.58 4399.59 1173.08 4403.44 1172.5C4412.27 1171.19 4413.6 1171.17 4412.39 1172.36C4411.46 1173.27 4408.54 1173.69 4394.44 1174.93C4390.59 1175.27 4386.31 1175.68 4384.94 1175.85C4383.56 1176.02 4378.16 1175.78 4372.94 1175.32Z" fill="#815A44" stroke="#815A44"/>
<path d="M3953.44 1177.79C3951.79 1176.91 3947.96 1176 3944.94 1175.76C3932.73 1174.8 3915.98 1172.35 3908.52 1170.44C3904.17 1169.33 3899.04 1168.42 3897.11 1168.42C3895.17 1168.42 3892.88 1167.82 3892.02 1167.08C3891.15 1166.34 3887.74 1164.73 3884.44 1163.5C3877.59 1160.94 3878.98 1161.64 3862.21 1152.37C3849.24 1145.21 3847.18 1143.84 3848.06 1142.96C3848.33 1142.69 3850.19 1143.59 3852.2 1144.95C3858.77 1149.42 3876.25 1158.24 3885.44 1161.73C3895.3 1165.47 3914.18 1170.53 3925.94 1172.56C3937.16 1174.51 3967.91 1174.23 3981.9 1172.07C4012.04 1167.39 4038.19 1158.39 4058.1 1145.82C4060.31 1144.42 4062.32 1143.47 4062.56 1143.71C4062.8 1143.95 4060.97 1146.4 4058.49 1149.15C4055.05 1152.97 4053.09 1154.3 4050.19 1154.77C4048.1 1155.1 4044.92 1156.46 4043.12 1157.79C4041.09 1159.29 4037.73 1160.47 4034.27 1160.9C4031.2 1161.28 4026.61 1162.5 4024.07 1163.59C4021.52 1164.69 4015.61 1166.46 4010.94 1167.52C3993.77 1171.42 3983.65 1173.42 3981.14 1173.42C3979.73 1173.42 3976.56 1174.39 3974.12 1175.58C3970.55 1177.3 3969.29 1177.5 3967.81 1176.58C3965.39 1175.06 3963.94 1175.12 3962.02 1176.8C3959.34 1179.15 3956.57 1179.47 3953.44 1177.79Z" fill="#815A44" stroke="#815A44"/>
<path d="M4288.45 1158.44C4287.44 1157.32 4286.91 1156.11 4287.28 1155.75C4287.64 1155.38 4287.26 1154.03 4286.42 1152.75C4284.52 1149.85 4285.26 1149.88 4290.94 1152.92C4293.41 1154.25 4294.65 1155.35 4293.7 1155.38C4292.53 1155.41 4292.04 1156.12 4292.2 1157.56C4292.52 1160.47 4290.68 1160.91 4288.45 1158.44Z" fill="#815A44" stroke="#815A44"/>
<path d="M4822.55 2052.74C4832.4 2043.83 4851.75 2028.91 4852.5 2029.65C4853.04 2030.19 4822.44 2054.76 4820.64 2055.24C4819.98 2055.42 4820.84 2054.3 4822.55 2052.74Z" fill="#815A44" stroke="#815A44"/>
<path d="M3520.09 2052.27C3513.97 2047.75 3509.15 2043.88 3509.37 2043.66C3510.02 2043 3513.6 2045.22 3522.25 2051.64C3532.16 2059 3532.44 2059.25 3531.76 2059.93C3531.46 2060.23 3526.21 2056.78 3520.09 2052.27Z" fill="#815A44" stroke="#815A44"/>
<path d="M4909.94 1978.92C4912.37 1976.45 4914.8 1974.42 4915.35 1974.42C4915.9 1974.42 4914.37 1976.45 4911.94 1978.92C4909.51 1981.4 4907.07 1983.42 4906.52 1983.42C4905.97 1983.42 4907.51 1981.4 4909.94 1978.92Z" fill="#815A44" stroke="#815A44"/>
<path d="M4303.44 1159.99C4296.86 1156.82 4299.12 1156.71 4306.06 1159.86C4309.02 1161.21 4310.76 1162.33 4309.94 1162.35C4309.11 1162.38 4306.19 1161.31 4303.44 1159.99Z" fill="#815A44" stroke="#815A44"/>
<path d="M4716.94 2123.59C4716.94 2122.25 4720.93 2117.42 4722.04 2117.42C4722.57 2117.42 4726.07 2115.4 4729.83 2112.92C4733.59 2110.45 4737.01 2108.42 4737.43 2108.42C4739.12 2108.42 4750.94 2102.08 4752.54 2100.31C4753.48 2099.27 4754.58 2098.42 4754.99 2098.42C4755.4 2098.42 4757.31 2096.85 4759.24 2094.92C4761.16 2093 4763.4 2091.42 4769.44 2088.42C4770.13 2088.42 4772.82 2086.48 4775.4 2084.11C4777.99 2081.73 4782.2 2078.69 4784.77 2077.36C4789.75 2074.76 4791.02 2073.86 4803.44 2064.07C4809.12 2059.59 4812.6 2057.58 4815.44 2057.14L4819.44 2056.52L4816.94 2058.6C4807.18 2066.72 4755.54 2101.69 4736.25 2113.23C4718.06 2124.12 4716.94 2124.72 4716.94 2123.59Z" fill="#815A44" stroke="#815A44"/>
<path d="M3136.54 987.172C3137.63 985.292 3150.74 969.826 3152.45 968.41C3155.59 965.803 3153.96 971.395 3150.44 975.29C3148.51 977.421 3146.94 979.642 3146.94 980.226C3146.94 981.566 3138.64 988.422 3137.02 988.422C3136.34 988.422 3136.13 987.881 3136.54 987.172Z" fill="#815A44" stroke="#815A44"/>
<path d="M4858.94 2024.04C4858.94 2023.74 4861.75 2021.16 4865.19 2018.31C4868.62 2015.46 4874.36 2010.53 4877.94 2007.36C4897.49 1990.04 4900.52 1987.47 4901.44 1987.48C4902.6 1987.49 4897.15 1992.49 4876.15 2010.68C4861.7 2023.19 4858.94 2025.34 4858.94 2024.04Z" fill="#815A44" stroke="#815A44"/>
<path d="M3423.4 1969.92C3416.27 1963.1 3410.89 1957.52 3411.44 1957.51C3412.81 1957.49 3437.57 1981.09 3436.9 1981.78C3436.61 1982.08 3430.53 1976.75 3423.4 1969.92Z" fill="#815A44" stroke="#815A44"/>
<path d="M5398.44 1434.48C5397.34 1434.04 5393.06 1433.38 5388.94 1433.02C5377 1431.99 5365.58 1430.32 5363.7 1429.33C5362.75 1428.83 5360.92 1428.42 5359.64 1428.42C5358.36 1428.42 5356.45 1427.76 5355.38 1426.95C5354.31 1426.15 5352.52 1425.47 5351.41 1425.45C5350.29 1425.44 5348.49 1424.81 5347.41 1424.06C5346.32 1423.32 5343.67 1422.38 5341.5 1421.98C5339.34 1421.59 5335.98 1419.96 5334.05 1418.37C5330.81 1415.69 5330.41 1415.59 5328.78 1417.07C5327.14 1418.54 5326.67 1418.36 5322.33 1414.54C5319.76 1412.27 5317.24 1410.42 5316.74 1410.42C5316.23 1410.42 5313.75 1408.85 5311.23 1406.92C5308.71 1405 5306.29 1403.42 5305.86 1403.42C5305.43 1403.42 5302.02 1400.51 5298.29 1396.96C5294.56 1393.41 5290.59 1390.37 5289.47 1390.21C5288.35 1390.05 5287.42 1389.25 5287.41 1388.42C5287.39 1387.6 5286.27 1385.72 5284.91 1384.25C5280.66 1379.65 5277.94 1375.67 5277.94 1374.04C5277.94 1373.17 5276.81 1371.73 5275.44 1370.83C5273.99 1369.88 5272.94 1368.24 5272.94 1366.93C5272.94 1365.68 5272.23 1364.08 5271.37 1363.37C5270.51 1362.65 5269.09 1360.68 5268.22 1358.99C5267.35 1357.3 5265.81 1355.34 5264.8 1354.63C5263.5 1353.71 5263.08 1352.4 5263.34 1350.13C5263.55 1348.36 5263.77 1346.25 5263.85 1345.42C5263.92 1344.6 5264.8 1345.72 5265.8 1347.92C5269.1 1355.2 5278.99 1370.35 5285.89 1378.73C5305.62 1402.67 5340.58 1422.99 5372.17 1428.89C5403.81 1434.8 5431.82 1431.16 5460.44 1417.42C5474.3 1410.77 5486.51 1401.84 5499.46 1388.92C5518.09 1370.32 5531.45 1347.52 5538.43 1322.42C5539.73 1317.75 5540.82 1315.06 5540.86 1316.46C5540.9 1317.86 5540.26 1321.59 5539.44 1324.76C5538.61 1327.93 5537.94 1331.4 5537.94 1332.47C5537.94 1333.54 5536.42 1337.46 5534.57 1341.17C5532.72 1344.88 5530.19 1350.62 5528.95 1353.92C5525.09 1364.19 5523.43 1367.25 5519.56 1371.29C5518.12 1372.8 5516.94 1374.71 5516.94 1375.54C5516.94 1376.37 5515.59 1378.34 5513.94 1379.92C5512.29 1381.5 5510.94 1383.62 5505.37 1389.74C5505.08 1390.49 5501.75 1393.45 5497.97 1396.32C5494.19 1399.2 5490.87 1402.15 5490.59 1402.88C5489.5 1405.72 5469.21 1417.42 5465.39 1417.42C5464.55 1417.42 5462.8 1418.12 5461.5 1418.97C5460.2 1419.82 5456.95 1421.36 5454.29 1422.39C5451.62 1423.41 5446.21 1425.6 5442.26 1427.26C5438.32 1428.92 5434.21 1430.04 5433.13 1429.76C5432.05 1429.48 5429.7 1430.01 5427.91 1430.94C5425.77 1432.04 5421.32 1432.78 5415.04 1433.08C5409.76 1433.33 5405.01 1433.96 5404.49 1434.48C5403.36 1435.6 5401.19 1435.6 5398.44 1434.48Z" fill="#815A44" stroke="#815A44"/>
<path d="M4453.67 1165.33C4452.69 1164.76 4451.01 1164.58 4449.93 1164.92C4448.84 1165.27 4447.06 1164.92 4445.97 1164.16C4444.12 1162.86 4444.36 1162.65 4449.52 1161.03C4456.9 1158.7 4474.81 1149.64 4483.21 1143.98C4489.97 1139.43 4491.54 1138.64 4490.51 1140.3C4489.62 1141.74 4475.85 1150.73 4470.44 1153.42C4467.69 1154.78 4465.08 1156.46 4464.64 1157.16C4464.2 1157.85 4463.3 1158.44 4462.64 1158.45C4460.56 1158.51 4457.1 1162.03 4457.27 1163.91C4457.47 1166.12 4456.02 1166.69 4453.67 1165.33Z" fill="#815A44" stroke="#815A44"/>
<path d="M4152.44 2275.31C4137.04 2274.98 4121.29 2274.42 4117.44 2274.06C4113.59 2273.71 4101.66 2272.72 4090.94 2271.86C4064.94 2269.79 4022.76 2264.87 4005.38 2261.89C3954.6 2253.17 3892.64 2238.06 3851.94 2224.46C3771.33 2197.52 3698.13 2164.51 3624 2121.65C3587.67 2100.65 3533.51 2064.35 3531.94 2059.96C3531.25 2058.03 3514.29 2045.47 3509.94 2043.67C3505.99 2042.03 3494.29 2032.8 3472.94 2014.47C3450.97 1995.62 3437.51 1983.35 3436.81 1981.54C3436.06 1979.59 3412.53 1957.42 3411.21 1957.42C3410.13 1957.42 3406.53 1953.59 3405.57 1951.42C3403.82 1947.44 3401.06 1943.81 3399 1942.77C3396.31 1941.43 3386.94 1932.39 3386.94 1931.15C3386.94 1930.68 3382.21 1925.75 3376.44 1920.19C3370.66 1914.63 3365.94 1909.7 3365.94 1909.23C3365.94 1907.96 3353.3 1891.6 3348.29 1886.39C3345.9 1883.89 3343.94 1881.38 3343.94 1880.8C3343.94 1880.22 3341.91 1877.85 3339.44 1875.53C3336.96 1873.21 3334.94 1870.62 3334.94 1869.78C3334.94 1868.94 3333.36 1866.86 3331.44 1865.15C3329.51 1863.45 3327.94 1861.48 3323.94 1855.93C3323.94 1855.15 3321.84 1853.47 3319.28 1852.19C3314.32 1849.72 3313.87 1849.15 3311.94 1842.92C3311.27 1840.72 3309.27 1837.35 3307.5 1835.42C3305.74 1833.5 3303.53 1830.68 3302.59 1829.17C3301.65 1827.66 3300.04 1826.42 3299.01 1826.42C3294.69 1826.42 3266.16 1783.21 3227.8 1718.55C3215.73 1698.22 3180.02 1623.65 3167.4 1592.42C3158.31 1569.93 3133.63 1494.24 3126.44 1466.83C3124.44 1459.18 3121.49 1447.97 3119.88 1441.92C3114.79 1422.71 3112.19 1407.6 3112.46 1398.92C3112.7 1391.23 3111.23 1385.42 3109.05 1385.42C3107.93 1385.42 3105.68 1366.06 3106.03 1359.42C3106.1 1358.05 3106.1 1356.02 3106.03 1354.92C3105.95 1353.82 3105.89 1351.6 3105.89 1349.99C3105.89 1348.38 3105.38 1346.46 3104.78 1345.73C3104.11 1344.93 3103.91 1342.64 3104.27 1340C3104.71 1336.8 3104.48 1335.29 3103.41 1334.4C3102.48 1333.63 3102.18 1332.3 3102.57 1330.75C3102.99 1329.05 3102.56 1327.64 3101.12 1326.12C3096.47 1321.14 3094.47 1284.56 3094.5 1204.42C3094.52 1137.43 3095.87 1094.19 3098.43 1078.42C3101.9 1057.1 3110.96 1029.49 3120.07 1012.48C3126.61 1000.28 3134.74 988.422 3136.56 988.422C3138.52 988.422 3146.94 981.775 3146.94 980.226C3146.94 979.642 3148.51 977.421 3150.44 975.29C3152.36 973.159 3153.94 970.391 3153.94 969.137C3153.94 967.513 3156.66 964.452 3163.42 958.492C3184.87 939.558 3199.57 930.564 3224.45 921.131C3246.21 912.881 3262.62 909.553 3286.94 908.458C3308.75 907.476 3772.1 907.223 3773.61 908.192C3774.47 908.747 3774.9 924.243 3775.22 967.433C3775.7 1030.61 3775.85 1032.52 3781.57 1051.42C3790.27 1080.15 3805.04 1103.95 3827.16 1124.87C3833.33 1130.7 3840.5 1136.93 3843.09 1138.7C3845.68 1140.47 3847.99 1142.6 3848.22 1143.42C3848.54 1144.63 3859.29 1151.01 3876.59 1160.27C3877.6 1160.82 3881.14 1162.27 3884.44 1163.5C3887.74 1164.73 3891.15 1166.34 3892.01 1167.08C3892.88 1167.82 3895.17 1168.42 3897.1 1168.42C3899.04 1168.42 3904.17 1169.33 3908.52 1170.44C3915.94 1172.34 3932.53 1174.77 3944.94 1175.77C3947.96 1176.01 3951.85 1176.94 3953.57 1177.84C3956.79 1179.5 3959.09 1179.11 3963.12 1176.22C3964.45 1175.27 3965.34 1175.3 3967.29 1176.34C3969.47 1177.51 3970.33 1177.41 3974.17 1175.55C3976.59 1174.38 3979.73 1173.42 3981.14 1173.42C3983.65 1173.42 3993.77 1171.42 4010.94 1167.52C4015.61 1166.46 4021.52 1164.69 4024.07 1163.59C4026.61 1162.5 4031.2 1161.28 4034.27 1160.9C4037.73 1160.47 4041.09 1159.29 4043.12 1157.79C4044.92 1156.46 4048.08 1155.1 4050.15 1154.77C4052.92 1154.33 4054.9 1153.04 4057.67 1149.88C4059.74 1147.52 4062.58 1144.32 4063.97 1142.76C4065.37 1141.2 4070.72 1136.55 4075.88 1132.42C4100.4 1112.78 4122.15 1079.51 4130.79 1048.42C4136.01 1029.62 4136.23 1026.51 4136.85 965.422L4137.44 907.922H4166.94H4196.44L4196.99 965.422C4197.46 1014.05 4197.81 1024.31 4199.26 1031.92C4206.27 1068.56 4220.29 1095.04 4246.36 1120.92C4258.38 1132.85 4273.59 1144.58 4282.08 1148.44C4284.79 1149.68 4287.92 1154.23 4287.28 1155.99C4286.73 1157.5 4290.57 1160.76 4294.3 1155.42C4295.67 1155.42 4297.48 1156.11 4298.32 1156.95C4300.28 1158.91 4307.88 1162.37 4310.29 1162.4C4311.3 1162.41 4316.7 1163.74 4322.29 1165.36C4333.79 1168.68 4352.37 1172.42 4357.4 1172.42C4359.25 1172.42 4360.92 1172.84 4361.1 1173.35C4361.61 1174.74 4382.6 1176.18 4390.5 1175.36C4394.31 1174.96 4400.55 1174.35 4404.35 1174.01C4408.16 1173.67 4411.84 1172.91 4412.55 1172.33C4413.25 1171.75 4416.66 1170.62 4420.13 1169.84C4423.6 1169.05 4430.34 1167.22 4435.11 1165.78C4440.73 1164.08 4444.43 1163.44 4445.61 1163.98C4446.62 1164.43 4448.79 1164.9 4450.44 1165.02C4452.09 1165.13 4454.34 1165.38 4455.44 1165.57C4456.9 1165.83 4457.39 1165.41 4457.27 1164.01C4457.1 1162.05 4460.51 1158.51 4462.64 1158.45C4463.3 1158.44 4464.2 1157.85 4464.64 1157.16C4465.08 1156.46 4467.69 1154.78 4470.44 1153.42C4477.79 1149.78 4487.04 1143.31 4493.53 1137.26C4496.68 1134.32 4502.61 1128.77 4506.71 1124.92C4515.78 1116.39 4530.01 1097.76 4536.41 1086.03C4545.62 1069.13 4552.06 1050.75 4556.17 1029.67C4558.11 1019.74 4558.3 1014.71 4558.67 963.739L4559.07 908.556L4568.75 908.147C4588.47 907.315 5393 907.611 5407.99 908.456C5449.03 910.769 5493.4 922.604 5530.24 941.067C5566.32 959.145 5590.72 976.027 5618.82 1002.35C5647.18 1028.91 5667.9 1056.74 5689.61 1097.42C5704.2 1124.77 5712.65 1146.73 5720.87 1178.65C5728.95 1210.05 5731.94 1234.32 5731.92 1268.12C5731.87 1323.77 5722.3 1370.93 5701.22 1419.42C5695.12 1433.45 5678.09 1463.79 5667.83 1478.92C5631.7 1532.19 5578.46 1575.45 5516.55 1601.85C5504.5 1607 5468.7 1618.08 5453.94 1621.24C5430.58 1626.24 5423.09 1626.89 5388.94 1626.88C5360.67 1626.87 5354.35 1626.58 5340.44 1624.62C5313.92 1620.89 5286.85 1613.64 5259.34 1602.9C5240.34 1595.48 5233.52 1592.15 5230.41 1588.8C5229.16 1587.45 5225.7 1585.48 5222.73 1584.44C5216.73 1582.33 5205.51 1576.21 5196.62 1570.19C5193.42 1568.03 5190.21 1566.49 5189.48 1566.77C5188.75 1567.04 5187.36 1569.44 5186.39 1572.1C5182.07 1583.89 5177.61 1594.19 5175.43 1597.42C5174.13 1599.35 5172.77 1602.27 5172.42 1603.92C5170.87 1611.09 5168.5 1616.42 5166.86 1616.42C5163.91 1616.42 5162.51 1619.39 5162.41 1625.86C5162.31 1631.82 5161.6 1633.51 5145.22 1666.5C5127.6 1701.99 5107.25 1737.27 5080.95 1777.92C5065.99 1801.05 5063.87 1804.06 5042.57 1832.42C5021.24 1860.82 5002.12 1884.48 4983.97 1904.92C4965.06 1926.21 4925.98 1966.57 4924.92 1965.91C4924.45 1965.62 4922.37 1967.42 4920.29 1969.9C4918.21 1972.39 4915.96 1974.42 4915.29 1974.42C4914.61 1974.42 4911.44 1977.35 4908.25 1980.92C4905.05 1984.5 4901.99 1987.43 4901.44 1987.44C4900.52 1987.46 4896.37 1990.98 4877.59 2007.69C4873.83 2011.04 4868.65 2015.45 4866.09 2017.49C4863.53 2019.53 4859.95 2023.05 4858.14 2025.31C4856.33 2027.57 4854.14 2029.42 4853.29 2029.42C4851.03 2029.42 4831.09 2044.64 4822.05 2053.27C4819.98 2055.24 4817.1 2056.84 4814.99 2057.19C4812.7 2057.56 4808.58 2060.01 4803.44 2064.07C4791.01 2073.86 4789.75 2074.76 4784.77 2077.36C4782.2 2078.69 4777.99 2081.73 4775.4 2084.11C4772.82 2086.48 4770.13 2088.42 4764.21 2091.42C4763.4 2091.42 4761.16 2093 4759.24 2094.92C4757.31 2096.85 4755.4 2098.42 4754.99 2098.42C4754.58 2098.42 4753.48 2099.27 4752.54 2100.31C4750.94 2102.08 4739.12 2108.42 4737.43 2108.42C4737 2108.42 4733.67 2110.33 4730.01 2112.67C4726.36 2115.01 4722.48 2117.4 4721.4 2117.99C4720.32 2118.57 4718.76 2120.42 4717.94 2122.1C4716.98 2124.04 4714.08 2126.51 4709.94 2128.91C4694.27 2137.96 4672.51 2149.63 4661.44 2154.93C4654.84 2158.09 4648.31 2161.29 4646.94 2162.04C4640.68 2165.47 4613.34 2178.68 4608.86 2180.45C4606.11 2181.54 4602.84 2182.42 4601.6 2182.42C4600.35 2182.42 4598.91 2182.85 4598.39 2183.37C4597.42 2184.33 4585.66 2189.45 4578.44 2192.07C4576.24 2192.86 4572.42 2194.44 4569.97 2195.58C4563.55 2198.53 4560.64 2199.68 4558.94 2199.9C4553.1 2200.68 4548.86 2201.73 4548.38 2202.52C4547.38 2204.13 4541.8 2206.59 4538.1 2207.05C4536.13 2207.29 4533.79 2208.15 4532.91 2208.95C4532.03 2209.74 4529.76 2210.69 4527.87 2211.05C4525.98 2211.4 4523.76 2212.26 4522.94 2212.94C4522.11 2213.63 4518.51 2215.19 4514.94 2216.42C4508.4 2218.67 4503.71 2220.68 4500.94 2222.42C4496.78 2225.02 4487.83 2227.97 4459.94 2235.94C4408.61 2250.6 4346.82 2263.28 4301.94 2268.37C4248.29 2274.45 4205.16 2276.46 4152.44 2275.31ZM3804.46 2122.39C3806.19 2120.48 3806.2 2120.26 3799.89 2122.87C3801.58 2124.9 3802.26 2124.83 3804.46 2122.39ZM3772.44 2117.42C3774.36 2116.69 3774.99 2115.83 3774.75 2114.25C3774.29 2111.12 3772.67 2111.01 3769.55 2113.9C3765.58 2117.58 3767.11 2119.44 3772.44 2117.42ZM3789.69 2108.67C3790.23 2107.03 3787.1 2105.86 3785.76 2107.2C3785.18 2107.78 3785.03 2108.76 3785.42 2109.39C3786.3 2110.82 3789.13 2110.34 3789.69 2108.67ZM5404.49 1434.48C5405.01 1433.96 5409.76 1433.33 5415.04 1433.08C5421.32 1432.78 5425.77 1432.04 5427.91 1430.94C5429.7 1430.01 5432.05 1429.48 5433.13 1429.76C5434.21 1430.04 5438.32 1428.92 5442.26 1427.26C5446.21 1425.6 5451.62 1423.41 5454.28 1422.39C5456.95 1421.36 5460.2 1419.82 5461.5 1418.97C5462.8 1418.12 5464.55 1417.42 5465.38 1417.42C5469.21 1417.42 5489.5 1405.72 5490.59 1402.88C5490.87 1402.15 5494.19 1399.2 5497.97 1396.32C5501.75 1393.45 5505.08 1390.49 5510.94 1384.63C5510.94 1383.62 5512.29 1381.5 5513.94 1379.92C5515.59 1378.34 5516.94 1376.37 5516.94 1375.54C5516.94 1374.71 5518.12 1372.8 5519.56 1371.29C5523.43 1367.25 5525.08 1364.19 5528.95 1353.92C5530.19 1350.62 5532.56 1345.22 5534.23 1341.92C5537.25 1335.94 5537.86 1333.7 5539.83 1321.42C5543.13 1300.86 5543.43 1296.68 5543.35 1271.92C5543.27 1247.88 5543.07 1244.98 5540.63 1233.36C5533.98 1201.61 5521.8 1176.89 5503.15 1157.3C5471 1123.51 5434.44 1107.94 5391.44 1109.74C5362.65 1110.94 5343.49 1117.1 5320.27 1132.62C5294.7 1149.72 5273.93 1175.5 5262.82 1203.91C5260.86 1208.92 5259.58 1210.91 5258.31 1210.91C5256.27 1210.92 5254.63 1216.4 5255.49 1220.27C5255.78 1221.56 5255.11 1227.18 5254 1232.77C5251.19 1246.86 5249.8 1271.99 5250.91 1288.54C5252 1304.84 5254.73 1318.42 5259.59 1331.86C5262.1 1338.77 5263.27 1343.74 5263.34 1347.75C5263.41 1351.84 5263.91 1353.92 5265.03 1354.75C5265.91 1355.39 5267.34 1357.3 5268.22 1358.99C5269.09 1360.68 5270.51 1362.65 5271.37 1363.37C5272.23 1364.08 5272.94 1365.68 5272.94 1366.93C5272.94 1368.24 5273.99 1369.88 5275.44 1370.83C5276.81 1371.73 5277.94 1373.17 5277.94 1374.04C5277.94 1375.67 5280.66 1379.65 5284.91 1384.25C5286.27 1385.72 5287.39 1387.6 5287.41 1388.42C5287.42 1389.25 5288.35 1390.05 5289.47 1390.21C5290.59 1390.37 5294.56 1393.41 5298.29 1396.96C5302.02 1400.51 5305.43 1403.42 5305.86 1403.42C5306.29 1403.42 5308.71 1405 5311.23 1406.92C5313.75 1408.85 5316.23 1410.42 5316.73 1410.42C5317.24 1410.42 5319.76 1412.27 5322.33 1414.54C5326.67 1418.36 5327.14 1418.54 5328.78 1417.07C5330.4 1415.59 5330.81 1415.69 5334.05 1418.37C5335.98 1419.96 5339.33 1421.59 5341.5 1421.98C5343.66 1422.38 5346.32 1423.32 5347.41 1424.06C5348.49 1424.81 5350.29 1425.44 5351.41 1425.45C5352.52 1425.47 5354.31 1426.15 5355.38 1426.95C5356.44 1427.76 5358.36 1428.42 5359.64 1428.42C5360.92 1428.42 5362.74 1428.83 5363.7 1429.33C5365.58 1430.32 5377 1431.99 5388.94 1433.02C5393.06 1433.38 5397.34 1434.04 5398.44 1434.48C5401.19 1435.6 5403.36 1435.6 5404.49 1434.48Z" fill="#815A44" stroke="#815A44"/>
<path d="M5225.13 1587.29C5222.22 1585.59 5220.01 1584.02 5220.23 1583.8C5220.92 1583.11 5228.04 1586.44 5230.23 1588.48C5233.26 1591.31 5231.2 1590.82 5225.13 1587.29Z" fill="#815A44" stroke="#815A44"/>
<path d="M5255.61 1221.03C5254.77 1218.83 5255.86 1211.58 5257.16 1210.79C5259.44 1209.38 5259.86 1212.29 5258.12 1217.41C5256.77 1221.38 5256.11 1222.33 5255.61 1221.03Z" fill="#815A44" stroke="#815A44"/>
<path d="M3799.89 2122.87C3798.81 2121.57 3798.95 2120.96 3804.46 2122.39C3802.26 2124.83 3801.58 2124.9 3799.89 2122.87Z" fill="#815A44" stroke="#815A44"/>
<path d="M3109.65 1395.97C3108.71 1391.4 3107.94 1387.15 3107.94 1386.54C3107.94 1384.63 3109.8 1385.31 3111.08 1387.67C3112.49 1390.3 3113.35 1403.05 3112.17 1403.78C3111.72 1404.05 3110.59 1400.54 3109.65 1395.97Z" fill="#815A44" stroke="#815A44"/>
<path d="M3388.83 1935.67C3379.82 1926.44 3368.15 1914.13 3362.91 1908.32C3353.78 1898.2 3315.94 1852.09 3315.94 1851.09C3315.94 1850.82 3317.74 1851.47 3319.94 1852.54C3322.14 1853.6 3323.94 1855.12 3327.94 1860.77C3327.94 1861.48 3329.51 1863.45 3331.44 1865.15C3333.36 1866.86 3334.94 1868.94 3334.94 1869.78C3334.94 1870.62 3336.96 1873.21 3339.44 1875.53C3341.91 1877.85 3343.94 1880.22 3343.94 1880.8C3343.94 1881.38 3345.9 1883.89 3348.29 1886.39C3353.3 1891.6 3365.94 1907.96 3365.94 1909.23C3365.94 1909.7 3370.66 1914.63 3376.44 1920.19C3382.21 1925.75 3386.94 1930.68 3386.94 1931.15C3386.94 1932.4 3396.34 1941.44 3399.05 1942.79C3400.34 1943.44 3401.87 1944.92 3402.46 1946.09C3403.04 1947.25 3404.12 1948.94 3404.87 1949.84C3405.61 1950.74 3406 1951.69 3405.73 1951.96C3405.45 1952.24 3397.85 1944.9 3388.83 1935.67Z" fill="#815A44" stroke="#815A44"/>
<path d="M3785.42 2109.39C3785.03 2108.76 3785.18 2107.78 3785.76 2107.2C3787.1 2105.86 3790.23 2107.03 3789.69 2108.67C3789.13 2110.34 3786.3 2110.82 3785.42 2109.39Z" fill="#815A44" stroke="#815A44"/>
<path d="M3305.01 1837.08C3301.12 1831.84 3297.94 1827.3 3297.94 1826.99C3297.94 1825.31 3301.13 1826.8 3302.59 1829.17C3303.53 1830.68 3305.72 1833.5 3307.46 1835.42C3310.71 1839.01 3313.65 1845.04 3312.64 1846.05C3312.33 1846.36 3308.89 1842.33 3305.01 1837.08Z" fill="#815A44" stroke="#815A44"/>
<path d="M3104.6 1367.17C3101.94 1350.59 3098.94 1328.6 3098.94 1325.72C3098.94 1324.33 3099.22 1324.37 3101.02 1325.99C3102.51 1327.34 3102.94 1328.64 3102.56 1330.56C3102.22 1332.23 3102.56 1333.69 3103.45 1334.43C3104.47 1335.28 3104.7 1336.84 3104.27 1340C3103.91 1342.64 3104.11 1344.93 3104.78 1345.73C3105.39 1346.46 3105.89 1348.38 3105.89 1349.99C3105.89 1351.6 3105.96 1353.82 3106.03 1354.92C3106.1 1356.02 3106.1 1358.05 3106.02 1359.42C3105.82 1362.71 3106.5 1371.6 3107.44 1378.17C3107.86 1381.06 3107.97 1383.42 3107.7 1383.42C3107.43 1383.42 3106.03 1376.11 3104.6 1367.17Z" fill="#815A44" stroke="#815A44"/>
<path d="M5172.01 1605.64C5171.91 1603.83 5174.85 1597.01 5175.47 1597.62C5175.75 1597.9 5175.1 1600.11 5174.03 1602.53C5172.95 1604.94 5172.05 1606.34 5172.01 1605.64Z" fill="#815A44" stroke="#815A44"/>
<path d="M3767.44 2117.43C3766.69 2116.21 3771.86 2111.23 3772.44 2117.42C3769.14 2118.68 3768.21 2118.68 3767.44 2117.43Z" fill="#815A44" stroke="#815A44"/>
<path d="M5162.46 1626.24C5161.32 1621.92 5163.65 1616.42 5166.63 1616.42C5168.22 1616.42 5167.9 1618.03 5164.91 1624.92C5163.17 1628.91 5163.17 1628.91 5162.46 1626.24Z" fill="#815A44" stroke="#815A44"/>
<path d="M4407.94 706.724C4380.99 705.509 4352.61 698.257 4329.48 686.676C4297.83 670.821 4269.13 644.022 4251.21 613.589C4238.87 592.615 4227.47 561.529 4225.4 543.182C4224.03 531.003 4223.95 525.796 4225.1 523.628C4226.17 521.614 4226 521.04 4223.73 518.928C4221.41 516.784 4221.06 515.507 4220.47 507.222C4220.1 502.107 4219.96 429.072 4220.14 344.922L4220.48 191.922L4223.22 177.422C4228.41 150.019 4234.82 130.916 4246.68 107.562C4258.37 84.5229 4268.5 70.9129 4288.07 51.921C4313.31 27.42 4345.94 10.4649 4381.44 3.40093C4395.25 0.650934 4423.24 -0.389096 4436.44 1.3579C4448.25 2.9219 4463.33 6.58995 4476.12 11.007C4500.41 19.402 4530.11 38.9579 4548.31 58.5469C4579.49 92.1079 4597.26 130.596 4607.12 185.922L4609.44 198.922V358.422C4609.44 506.98 4609.31 518.686 4607.64 529.061C4598.73 584.445 4575.03 629.396 4538.59 660.057C4503.1 689.915 4465.78 704.635 4420.44 706.659C4416.59 706.831 4410.96 706.86 4407.94 706.724Z" fill="#815A44" stroke="#815A44"/>
<path d="M3866.2 698.88C3855.39 695.685 3838.84 689.098 3831.94 685.252C3823.86 680.748 3811.94 673.288 3811.94 672.737C3811.94 672.237 3817.54 675.472 3822.08 678.589C3825.72 681.094 3843.26 689.674 3849.94 692.224C3852.96 693.378 3860.39 695.881 3866.44 697.785C3872.49 699.689 3876.76 701.262 3875.94 701.281C3875.11 701.3 3870.73 700.22 3866.2 698.88Z" fill="#815A44" stroke="#815A44"/>
<path d="M3901.82 705.995C3901.48 705.642 3896.75 704.645 3891.32 703.778C3881.59 702.227 3858.64 695.704 3848.02 691.475C3820.17 680.389 3793.14 660.542 3774.21 637.285C3764.28 625.089 3753.15 607.504 3747.17 594.549C3745.25 590.39 3742.85 585.848 3741.84 584.455C3737.05 577.837 3729.96 548.803 3727.87 527.258C3726.2 510.024 3727.23 428.594 3729.25 417.922C3731.65 405.268 3733.63 397.665 3737.31 386.922C3742.83 370.778 3750.71 353.167 3752.04 353.989C3752.49 354.268 3754.06 352.117 3755.53 349.209C3756.99 346.301 3759.03 342.728 3760.06 341.268C3761.09 339.808 3761.94 337.864 3761.94 336.948C3761.94 335.096 3766.19 328.523 3772.3 320.922C3784.23 306.093 3818.31 275.487 3822.95 275.438C3823.78 275.429 3826.48 274.286 3828.95 272.899C3831.42 271.512 3839.06 267.629 3845.94 264.272C3852.81 260.915 3858.66 257.842 3858.94 257.443C3860.45 255.255 3884.71 249.027 3898.16 247.375C3912.75 245.583 3942.66 246.607 3956.44 249.369C3980.85 254.265 4006.64 264.93 4023.84 277.246C4068.45 309.189 4098.34 357.094 4109.1 413.922C4110.96 423.744 4111.24 429.74 4111.65 469.922C4112.16 518.795 4111.58 529.135 4107.29 548.422C4103.5 565.425 4098.68 579.335 4091.53 593.922C4080.21 617.001 4066.57 635.824 4048.76 652.956C4021.4 679.277 3991.85 695.125 3955.44 703.016C3945.47 705.174 3939.95 705.702 3922.94 706.126C3911.66 706.407 3902.16 706.348 3901.82 705.995ZM3757.65 587.765C3758.15 586.291 3754.83 582.711 3752.3 581.978C3750.59 581.483 3750.04 581.884 3749.51 583.987C3748.62 587.544 3750.5 589.583 3754.28 589.152C3755.94 588.962 3757.46 588.337 3757.65 587.765ZM3764.6 353.855C3764.93 352.993 3764.66 351.756 3759.94 354.613C3759.94 356.102 3763.99 355.443 3764.6 353.855Z" fill="#815A44" stroke="#815A44"/>
<path d="M3772.27 636.172C3763.87 627.235 3747.87 600.979 3743.03 588.172C3740.85 582.418 3743.11 585.767 3746.81 593.769C3750.27 601.26 3755.41 610.318 3762.79 621.922C3764.19 624.122 3767.74 628.959 3770.68 632.672C3776.49 640.017 3777.06 641.265 3772.27 636.172Z" fill="#815A44" stroke="#815A44"/>
<path d="M3759.94 354.613C3759.94 354.168 3760.58 352.931 3761.37 351.863C3762.47 350.365 3763.07 350.193 3764 351.105C3765.67 352.752 3764.41 355.422 3761.97 355.422C3760.85 355.422 3759.94 355.058 3759.94 354.613Z" fill="#815A44" stroke="#815A44"/>
<path d="M4222.6 525.567C4221.73 518.52 4222.17 517.232 4224.64 519.702C4225.99 521.051 4226.09 521.791 4225.16 523.642C4224.52 524.896 4223.87 527.272 4223.7 528.922C4223.5 530.859 4223.11 529.671 4222.6 525.567Z" fill="#815A44" stroke="#815A44"/>
<path d="M3751.94 353.26C3751.94 351.335 3761.29 335.994 3761.71 337.239C3761.92 337.874 3761.22 339.636 3760.14 341.157C3759.07 342.678 3757 346.285 3755.55 349.172C3752.92 354.379 3751.94 355.497 3751.94 353.26Z" fill="#815A44" stroke="#815A44"/>
<path d="M3822.94 275.053C3822.94 274.164 3840.16 264.824 3848.73 261.062C3861.75 255.354 3860.73 256.908 3847.15 263.491C3840.39 266.766 3833.19 270.5 3831.15 271.788C3827.33 274.198 3822.94 275.944 3822.94 275.053Z" fill="#815A44" stroke="#815A44"/>
<path d="M3750.05 588.056C3749.35 587.215 3749.13 585.519 3749.51 583.987C3750.04 581.884 3750.59 581.483 3752.3 581.978C3754.84 582.711 3758.15 586.291 3757.66 587.765C3757.1 589.444 3751.38 589.663 3750.05 588.056Z" fill="#815A44" stroke="#815A44"/>
<path d="M7983.43 1968.43C7985 1966.79 7986.51 1965.66 7986.78 1965.94C7987.44 1966.6 7982.86 1971.42 7981.58 1971.42C7981.02 1971.42 7981.85 1970.08 7983.43 1968.43Z" fill="#815A44" stroke="#815A44"/>
<path d="M7563.31 2222.62C7564.16 2221.26 7568.11 2219.46 7576.94 2216.42C7580.51 2215.19 7584.11 2213.63 7584.94 2212.94C7585.76 2212.26 7587.98 2211.4 7589.87 2211.05C7591.76 2210.69 7594.03 2209.74 7594.91 2208.95C7595.79 2208.15 7598.13 2207.29 7600.1 2207.05C7603.8 2206.59 7609.38 2204.13 7610.38 2202.52C7610.86 2201.73 7615.1 2200.68 7620.94 2199.9C7622.68 2199.67 7625.28 2198.63 7633.12 2195.03C7636.25 2193.6 7639.24 2192.42 7639.76 2192.42C7640.63 2192.42 7648.51 2189.07 7658.44 2184.46C7660.64 2183.44 7664.01 2182.37 7665.94 2182.07C7668.5 2181.68 7668.9 2181.77 7667.44 2182.43C7640.48 2194.51 7621.48 2202.21 7591.94 2212.98C7577.91 2218.1 7565.58 2222.62 7564.52 2223.02C7563.2 2223.53 7562.83 2223.41 7563.31 2222.62Z" fill="#815A44" stroke="#815A44"/>
<path d="M7434.94 1175.32C7420.11 1173.99 7421.08 1173.69 7440.44 1173.62C7450.34 1173.58 7461.59 1173.08 7465.44 1172.5C7474.27 1171.19 7475.6 1171.17 7474.39 1172.36C7473.46 1173.27 7470.54 1173.69 7456.44 1174.93C7452.59 1175.27 7448.31 1175.68 7446.94 1175.85C7445.56 1176.02 7440.16 1175.78 7434.94 1175.32Z" fill="#815A44" stroke="#815A44"/>
<path d="M7015.44 1177.79C7013.79 1176.91 7009.96 1176 7006.94 1175.76C6994.73 1174.8 6977.98 1172.35 6970.52 1170.44C6966.17 1169.33 6961.04 1168.42 6959.11 1168.42C6957.17 1168.42 6954.88 1167.82 6954.02 1167.08C6953.15 1166.34 6949.74 1164.73 6946.44 1163.5C6939.59 1160.94 6940.98 1161.64 6924.21 1152.37C6911.24 1145.21 6909.18 1143.84 6910.06 1142.96C6910.33 1142.69 6912.19 1143.59 6914.2 1144.95C6920.77 1149.42 6938.25 1158.24 6947.44 1161.73C6957.3 1165.47 6976.18 1170.53 6987.94 1172.56C6999.16 1174.51 7029.91 1174.23 7043.9 1172.07C7074.04 1167.39 7100.19 1158.39 7120.1 1145.82C7122.31 1144.42 7124.32 1143.47 7124.56 1143.71C7124.8 1143.95 7122.97 1146.4 7120.49 1149.15C7117.05 1152.97 7115.09 1154.3 7112.19 1154.77C7110.1 1155.1 7106.92 1156.46 7105.12 1157.79C7103.09 1159.29 7099.73 1160.47 7096.27 1160.9C7093.2 1161.28 7088.61 1162.5 7086.07 1163.59C7083.52 1164.69 7077.61 1166.46 7072.94 1167.52C7055.77 1171.42 7045.65 1173.42 7043.14 1173.42C7041.73 1173.42 7038.56 1174.39 7036.12 1175.58C7032.55 1177.3 7031.29 1177.5 7029.81 1176.58C7027.39 1175.06 7025.94 1175.12 7024.02 1176.8C7021.34 1179.15 7018.57 1179.47 7015.44 1177.79Z" fill="#815A44" stroke="#815A44"/>
<path d="M7350.45 1158.44C7349.44 1157.32 7348.91 1156.11 7349.28 1155.75C7349.64 1155.38 7349.26 1154.03 7348.42 1152.75C7346.52 1149.85 7347.26 1149.88 7352.94 1152.92C7355.41 1154.25 7356.65 1155.35 7355.7 1155.38C7354.53 1155.41 7354.04 1156.12 7354.2 1157.56C7354.52 1160.47 7352.68 1160.91 7350.45 1158.44Z" fill="#815A44" stroke="#815A44"/>
<path d="M7884.55 2052.74C7894.4 2043.83 7913.75 2028.91 7914.5 2029.65C7915.04 2030.19 7884.44 2054.76 7882.64 2055.24C7881.98 2055.42 7882.84 2054.3 7884.55 2052.74Z" fill="#815A44" stroke="#815A44"/>
<path d="M6582.09 2052.27C6575.97 2047.75 6571.15 2043.88 6571.37 2043.66C6572.02 2043 6575.6 2045.22 6584.25 2051.64C6594.16 2059 6594.44 2059.25 6593.76 2059.93C6593.46 2060.23 6588.21 2056.78 6582.09 2052.27Z" fill="#815A44" stroke="#815A44"/>
<path d="M7971.94 1978.92C7974.37 1976.45 7976.8 1974.42 7977.35 1974.42C7977.9 1974.42 7976.37 1976.45 7973.94 1978.92C7971.51 1981.4 7969.07 1983.42 7968.52 1983.42C7967.97 1983.42 7969.51 1981.4 7971.94 1978.92Z" fill="#815A44" stroke="#815A44"/>
<path d="M7365.44 1159.99C7358.86 1156.82 7361.12 1156.71 7368.06 1159.86C7371.02 1161.21 7372.76 1162.33 7371.94 1162.35C7371.11 1162.38 7368.19 1161.31 7365.44 1159.99Z" fill="#815A44" stroke="#815A44"/>
<path d="M7778.94 2123.59C7778.94 2122.25 7782.93 2117.42 7784.04 2117.42C7784.57 2117.42 7788.07 2115.4 7791.83 2112.92C7795.59 2110.45 7799.01 2108.42 7799.43 2108.42C7801.12 2108.42 7812.94 2102.08 7814.54 2100.31C7815.48 2099.27 7816.58 2098.42 7816.99 2098.42C7817.4 2098.42 7819.31 2096.85 7821.24 2094.92C7823.16 2093 7825.4 2091.42 7831.44 2088.42C7832.13 2088.42 7834.82 2086.48 7837.4 2084.11C7839.99 2081.73 7844.2 2078.69 7846.77 2077.36C7851.75 2074.76 7853.02 2073.86 7865.44 2064.07C7871.12 2059.59 7874.6 2057.58 7877.44 2057.14L7881.44 2056.52L7878.94 2058.6C7869.18 2066.72 7817.54 2101.69 7798.25 2113.23C7780.06 2124.12 7778.94 2124.72 7778.94 2123.59Z" fill="#815A44" stroke="#815A44"/>
<path d="M6198.54 987.172C6199.63 985.292 6212.74 969.826 6214.45 968.41C6217.59 965.803 6215.96 971.395 6212.44 975.29C6210.51 977.421 6208.94 979.642 6208.94 980.226C6208.94 981.566 6200.64 988.422 6199.02 988.422C6198.34 988.422 6198.13 987.881 6198.54 987.172Z" fill="#815A44" stroke="#815A44"/>
<path d="M7920.94 2024.04C7920.94 2023.74 7923.75 2021.16 7927.19 2018.31C7930.62 2015.46 7936.36 2010.53 7939.94 2007.36C7959.49 1990.04 7962.52 1987.47 7963.44 1987.48C7964.6 1987.49 7959.15 1992.49 7938.15 2010.68C7923.7 2023.19 7920.94 2025.34 7920.94 2024.04Z" fill="#815A44" stroke="#815A44"/>
<path d="M6485.4 1969.92C6478.27 1963.1 6472.89 1957.52 6473.44 1957.51C6474.81 1957.49 6499.57 1981.09 6498.9 1981.78C6498.61 1982.08 6492.53 1976.75 6485.4 1969.92Z" fill="#815A44" stroke="#815A44"/>
<path d="M8460.44 1434.48C8459.34 1434.04 8455.06 1433.38 8450.94 1433.02C8439 1431.99 8427.58 1430.32 8425.7 1429.33C8424.75 1428.83 8422.92 1428.42 8421.64 1428.42C8420.36 1428.42 8418.45 1427.76 8417.38 1426.95C8416.31 1426.15 8414.52 1425.47 8413.41 1425.45C8412.29 1425.44 8410.49 1424.81 8409.41 1424.06C8408.32 1423.32 8405.67 1422.38 8403.5 1421.98C8401.34 1421.59 8397.98 1419.96 8396.05 1418.37C8392.81 1415.69 8392.41 1415.59 8390.78 1417.07C8389.14 1418.54 8388.67 1418.36 8384.33 1414.54C8381.76 1412.27 8379.24 1410.42 8378.74 1410.42C8378.23 1410.42 8375.75 1408.85 8373.23 1406.92C8370.71 1405 8368.29 1403.42 8367.86 1403.42C8367.43 1403.42 8364.02 1400.51 8360.29 1396.96C8356.56 1393.41 8352.59 1390.37 8351.47 1390.21C8350.35 1390.05 8349.42 1389.25 8349.41 1388.42C8349.39 1387.6 8348.27 1385.72 8346.91 1384.25C8342.66 1379.65 8339.94 1375.67 8339.94 1374.04C8339.94 1373.17 8338.81 1371.73 8337.44 1370.83C8335.99 1369.88 8334.94 1368.24 8334.94 1366.93C8334.94 1365.68 8334.23 1364.08 8333.37 1363.37C8332.51 1362.65 8331.09 1360.68 8330.22 1358.99C8329.35 1357.3 8327.81 1355.34 8326.8 1354.63C8325.5 1353.71 8325.08 1352.4 8325.34 1350.13C8325.55 1348.36 8325.77 1346.25 8325.85 1345.42C8325.92 1344.6 8326.8 1345.72 8327.8 1347.92C8331.1 1355.2 8340.99 1370.35 8347.89 1378.73C8367.62 1402.67 8402.58 1422.99 8434.17 1428.89C8465.81 1434.8 8493.82 1431.16 8522.44 1417.42C8536.3 1410.77 8548.51 1401.84 8561.46 1388.92C8580.09 1370.32 8593.45 1347.52 8600.43 1322.42C8601.73 1317.75 8602.82 1315.06 8602.86 1316.46C8602.9 1317.86 8602.26 1321.59 8601.44 1324.76C8600.61 1327.93 8599.94 1331.4 8599.94 1332.47C8599.94 1333.54 8598.42 1337.46 8596.57 1341.17C8594.72 1344.88 8592.19 1350.62 8590.95 1353.92C8587.09 1364.19 8585.43 1367.25 8581.56 1371.29C8580.12 1372.8 8578.94 1374.71 8578.94 1375.54C8578.94 1376.37 8577.59 1378.34 8575.94 1379.92C8574.29 1381.5 8572.94 1383.62 8567.37 1389.74C8567.08 1390.49 8563.75 1393.45 8559.97 1396.32C8556.19 1399.2 8552.87 1402.15 8552.59 1402.88C8551.5 1405.72 8531.21 1417.42 8527.39 1417.42C8526.55 1417.42 8524.8 1418.12 8523.5 1418.97C8522.2 1419.82 8518.95 1421.36 8516.29 1422.39C8513.62 1423.41 8508.21 1425.6 8504.26 1427.26C8500.32 1428.92 8496.21 1430.04 8495.13 1429.76C8494.05 1429.48 8491.7 1430.01 8489.91 1430.94C8487.77 1432.04 8483.32 1432.78 8477.04 1433.08C8471.76 1433.33 8467.01 1433.96 8466.49 1434.48C8465.36 1435.6 8463.19 1435.6 8460.44 1434.48Z" fill="#815A44" stroke="#815A44"/>
<path d="M7515.67 1165.33C7514.69 1164.76 7513.01 1164.58 7511.93 1164.92C7510.84 1165.27 7509.06 1164.92 7507.97 1164.16C7506.12 1162.86 7506.36 1162.65 7511.52 1161.03C7518.9 1158.7 7536.81 1149.64 7545.21 1143.98C7551.97 1139.43 7553.54 1138.64 7552.51 1140.3C7551.62 1141.74 7537.85 1150.73 7532.44 1153.42C7529.69 1154.78 7527.08 1156.46 7526.64 1157.16C7526.2 1157.85 7525.3 1158.44 7524.64 1158.45C7522.56 1158.51 7519.1 1162.03 7519.27 1163.91C7519.47 1166.12 7518.02 1166.69 7515.67 1165.33Z" fill="#815A44" stroke="#815A44"/>
<path d="M7214.44 2275.31C7199.04 2274.98 7183.29 2274.42 7179.44 2274.06C7175.59 2273.71 7163.66 2272.72 7152.94 2271.86C7126.94 2269.79 7084.76 2264.87 7067.38 2261.89C7016.6 2253.17 6954.64 2238.06 6913.94 2224.46C6833.33 2197.52 6760.13 2164.51 6686 2121.65C6649.67 2100.65 6595.51 2064.35 6593.94 2059.96C6593.25 2058.03 6576.29 2045.47 6571.94 2043.67C6567.99 2042.03 6556.29 2032.8 6534.94 2014.47C6512.97 1995.62 6499.51 1983.35 6498.81 1981.54C6498.06 1979.59 6474.53 1957.42 6473.21 1957.42C6472.13 1957.42 6468.53 1953.59 6467.57 1951.42C6465.82 1947.44 6463.06 1943.81 6461 1942.77C6458.31 1941.43 6448.94 1932.39 6448.94 1931.15C6448.94 1930.68 6444.21 1925.75 6438.44 1920.19C6432.66 1914.63 6427.94 1909.7 6427.94 1909.23C6427.94 1907.96 6415.3 1891.6 6410.29 1886.39C6407.9 1883.89 6405.94 1881.38 6405.94 1880.8C6405.94 1880.22 6403.91 1877.85 6401.44 1875.53C6398.96 1873.21 6396.94 1870.62 6396.94 1869.78C6396.94 1868.94 6395.36 1866.86 6393.44 1865.15C6391.51 1863.45 6389.94 1861.48 6385.94 1855.93C6385.94 1855.15 6383.84 1853.47 6381.28 1852.19C6376.32 1849.72 6375.87 1849.15 6373.94 1842.92C6373.27 1840.72 6371.27 1837.35 6369.5 1835.42C6367.74 1833.5 6365.53 1830.68 6364.59 1829.17C6363.65 1827.66 6362.04 1826.42 6361.01 1826.42C6356.69 1826.42 6328.16 1783.21 6289.8 1718.55C6277.73 1698.22 6242.02 1623.65 6229.4 1592.42C6220.31 1569.93 6195.63 1494.24 6188.44 1466.83C6186.44 1459.18 6183.49 1447.97 6181.88 1441.92C6176.79 1422.71 6174.19 1407.6 6174.46 1398.92C6174.7 1391.23 6173.23 1385.42 6171.05 1385.42C6169.93 1385.42 6167.68 1366.06 6168.03 1359.42C6168.1 1358.05 6168.1 1356.02 6168.03 1354.92C6167.95 1353.82 6167.89 1351.6 6167.89 1349.99C6167.89 1348.38 6167.38 1346.46 6166.78 1345.73C6166.11 1344.93 6165.91 1342.64 6166.27 1340C6166.71 1336.8 6166.48 1335.29 6165.41 1334.4C6164.48 1333.63 6164.18 1332.3 6164.57 1330.75C6164.99 1329.05 6164.56 1327.64 6163.12 1326.12C6158.47 1321.14 6156.47 1284.56 6156.5 1204.42C6156.52 1137.43 6157.87 1094.19 6160.43 1078.42C6163.9 1057.1 6172.96 1029.49 6182.07 1012.48C6188.61 1000.28 6196.74 988.422 6198.56 988.422C6200.52 988.422 6208.94 981.775 6208.94 980.226C6208.94 979.642 6210.51 977.421 6212.44 975.29C6214.36 973.159 6215.94 970.391 6215.94 969.137C6215.94 967.513 6218.66 964.452 6225.42 958.492C6246.87 939.558 6261.57 930.564 6286.45 921.131C6308.21 912.881 6324.62 909.553 6348.94 908.458C6370.75 907.476 6834.1 907.223 6835.61 908.192C6836.47 908.747 6836.9 924.243 6837.22 967.433C6837.7 1030.61 6837.85 1032.52 6843.57 1051.42C6852.27 1080.15 6867.04 1103.95 6889.16 1124.87C6895.33 1130.7 6902.5 1136.93 6905.09 1138.7C6907.68 1140.47 6909.99 1142.6 6910.22 1143.42C6910.54 1144.63 6921.29 1151.01 6938.59 1160.27C6939.6 1160.82 6943.14 1162.27 6946.44 1163.5C6949.74 1164.73 6953.15 1166.34 6954.01 1167.08C6954.88 1167.82 6957.17 1168.42 6959.1 1168.42C6961.04 1168.42 6966.17 1169.33 6970.52 1170.44C6977.94 1172.34 6994.53 1174.77 7006.94 1175.77C7009.96 1176.01 7013.85 1176.94 7015.57 1177.84C7018.79 1179.5 7021.09 1179.11 7025.12 1176.22C7026.45 1175.27 7027.34 1175.3 7029.29 1176.34C7031.47 1177.51 7032.33 1177.41 7036.17 1175.55C7038.59 1174.38 7041.73 1173.42 7043.14 1173.42C7045.65 1173.42 7055.77 1171.42 7072.94 1167.52C7077.61 1166.46 7083.52 1164.69 7086.07 1163.59C7088.61 1162.5 7093.2 1161.28 7096.27 1160.9C7099.73 1160.47 7103.09 1159.29 7105.12 1157.79C7106.92 1156.46 7110.08 1155.1 7112.15 1154.77C7114.92 1154.33 7116.9 1153.04 7119.67 1149.88C7121.74 1147.52 7124.58 1144.32 7125.97 1142.76C7127.37 1141.2 7132.72 1136.55 7137.88 1132.42C7162.4 1112.78 7184.15 1079.51 7192.79 1048.42C7198.01 1029.62 7198.23 1026.51 7198.85 965.422L7199.44 907.922H7228.94H7258.44L7258.99 965.422C7259.46 1014.05 7259.81 1024.31 7261.26 1031.92C7268.27 1068.56 7282.29 1095.04 7308.36 1120.92C7320.38 1132.85 7335.59 1144.58 7344.08 1148.44C7346.79 1149.68 7349.92 1154.23 7349.28 1155.99C7348.73 1157.5 7352.57 1160.76 7356.3 1155.42C7357.67 1155.42 7359.48 1156.11 7360.32 1156.95C7362.28 1158.91 7369.88 1162.37 7372.29 1162.4C7373.3 1162.41 7378.7 1163.74 7384.29 1165.36C7395.79 1168.68 7414.37 1172.42 7419.4 1172.42C7421.25 1172.42 7422.92 1172.84 7423.1 1173.35C7423.61 1174.74 7444.6 1176.18 7452.5 1175.36C7456.31 1174.96 7462.55 1174.35 7466.35 1174.01C7470.16 1173.67 7473.84 1172.91 7474.55 1172.33C7475.25 1171.75 7478.66 1170.62 7482.13 1169.84C7485.6 1169.05 7492.34 1167.22 7497.11 1165.78C7502.73 1164.08 7506.43 1163.44 7507.61 1163.98C7508.62 1164.43 7510.79 1164.9 7512.44 1165.02C7514.09 1165.13 7516.34 1165.38 7517.44 1165.57C7518.9 1165.83 7519.39 1165.41 7519.27 1164.01C7519.1 1162.05 7522.51 1158.51 7524.64 1158.45C7525.3 1158.44 7526.2 1157.85 7526.64 1157.16C7527.08 1156.46 7529.69 1154.78 7532.44 1153.42C7539.79 1149.78 7549.04 1143.31 7555.53 1137.26C7558.68 1134.32 7564.61 1128.77 7568.71 1124.92C7577.78 1116.39 7592.01 1097.76 7598.41 1086.03C7607.62 1069.13 7614.06 1050.75 7618.17 1029.67C7620.11 1019.74 7620.3 1014.71 7620.67 963.739L7621.07 908.556L7630.75 908.147C7650.47 907.315 8455 907.611 8469.99 908.456C8511.03 910.769 8555.4 922.604 8592.24 941.067C8628.32 959.145 8652.72 976.027 8680.82 1002.35C8709.18 1028.91 8729.9 1056.74 8751.61 1097.42C8766.2 1124.77 8774.65 1146.73 8782.87 1178.65C8790.95 1210.05 8793.94 1234.32 8793.92 1268.12C8793.87 1323.77 8784.3 1370.93 8763.22 1419.42C8757.12 1433.45 8740.09 1463.79 8729.83 1478.92C8693.7 1532.19 8640.46 1575.45 8578.55 1601.85C8566.5 1607 8530.7 1618.08 8515.94 1621.24C8492.58 1626.24 8485.09 1626.89 8450.94 1626.88C8422.67 1626.87 8416.35 1626.58 8402.44 1624.62C8375.92 1620.89 8348.85 1613.64 8321.34 1602.9C8302.34 1595.48 8295.52 1592.15 8292.41 1588.8C8291.16 1587.45 8287.7 1585.48 8284.73 1584.44C8278.73 1582.33 8267.51 1576.21 8258.62 1570.19C8255.42 1568.03 8252.21 1566.49 8251.48 1566.77C8250.75 1567.04 8249.36 1569.44 8248.39 1572.1C8244.07 1583.89 8239.61 1594.19 8237.43 1597.42C8236.13 1599.35 8234.77 1602.27 8234.42 1603.92C8232.87 1611.09 8230.5 1616.42 8228.86 1616.42C8225.91 1616.42 8224.51 1619.39 8224.41 1625.86C8224.31 1631.82 8223.6 1633.51 8207.22 1666.5C8189.6 1701.99 8169.25 1737.27 8142.95 1777.92C8127.99 1801.05 8125.87 1804.06 8104.57 1832.42C8083.24 1860.82 8064.12 1884.48 8045.97 1904.92C8027.06 1926.21 7987.98 1966.57 7986.92 1965.91C7986.45 1965.62 7984.37 1967.42 7982.29 1969.9C7980.21 1972.39 7977.96 1974.42 7977.29 1974.42C7976.61 1974.42 7973.44 1977.35 7970.25 1980.92C7967.05 1984.5 7963.99 1987.43 7963.44 1987.44C7962.52 1987.46 7958.37 1990.98 7939.59 2007.69C7935.83 2011.04 7930.65 2015.45 7928.09 2017.49C7925.53 2019.53 7921.95 2023.05 7920.14 2025.31C7918.33 2027.57 7916.14 2029.42 7915.29 2029.42C7913.03 2029.42 7893.09 2044.64 7884.05 2053.27C7881.98 2055.24 7879.1 2056.84 7876.99 2057.19C7874.7 2057.56 7870.58 2060.01 7865.44 2064.07C7853.01 2073.86 7851.75 2074.76 7846.77 2077.36C7844.2 2078.69 7839.99 2081.73 7837.4 2084.11C7834.82 2086.48 7832.13 2088.42 7826.21 2091.42C7825.4 2091.42 7823.16 2093 7821.24 2094.92C7819.31 2096.85 7817.4 2098.42 7816.99 2098.42C7816.58 2098.42 7815.48 2099.27 7814.54 2100.31C7812.94 2102.08 7801.12 2108.42 7799.43 2108.42C7799 2108.42 7795.67 2110.33 7792.01 2112.67C7788.36 2115.01 7784.48 2117.4 7783.4 2117.99C7782.32 2118.57 7780.76 2120.42 7779.94 2122.1C7778.98 2124.04 7776.08 2126.51 7771.94 2128.91C7756.27 2137.96 7734.51 2149.63 7723.44 2154.93C7716.84 2158.09 7710.31 2161.29 7708.94 2162.04C7702.68 2165.47 7675.34 2178.68 7670.86 2180.45C7668.11 2181.54 7664.84 2182.42 7663.6 2182.42C7662.35 2182.42 7660.91 2182.85 7660.39 2183.37C7659.42 2184.33 7647.66 2189.45 7640.44 2192.07C7638.24 2192.86 7634.42 2194.44 7631.97 2195.58C7625.55 2198.53 7622.64 2199.68 7620.94 2199.9C7615.1 2200.68 7610.86 2201.73 7610.38 2202.52C7609.38 2204.13 7603.8 2206.59 7600.1 2207.05C7598.13 2207.29 7595.79 2208.15 7594.91 2208.95C7594.03 2209.74 7591.76 2210.69 7589.87 2211.05C7587.98 2211.4 7585.76 2212.26 7584.94 2212.94C7584.11 2213.63 7580.51 2215.19 7576.94 2216.42C7570.4 2218.67 7565.71 2220.68 7562.94 2222.42C7558.78 2225.02 7549.83 2227.97 7521.94 2235.94C7470.61 2250.6 7408.82 2263.28 7363.94 2268.37C7310.29 2274.45 7267.16 2276.46 7214.44 2275.31ZM6866.46 2122.39C6868.19 2120.48 6868.2 2120.26 6861.89 2122.87C6863.58 2124.9 6864.26 2124.83 6866.46 2122.39ZM6834.44 2117.42C6836.36 2116.69 6836.99 2115.83 6836.75 2114.25C6836.29 2111.12 6834.67 2111.01 6831.55 2113.9C6827.58 2117.58 6829.11 2119.44 6834.44 2117.42ZM6851.69 2108.67C6852.23 2107.03 6849.1 2105.86 6847.76 2107.2C6847.18 2107.78 6847.03 2108.76 6847.42 2109.39C6848.3 2110.82 6851.13 2110.34 6851.69 2108.67ZM8466.49 1434.48C8467.01 1433.96 8471.76 1433.33 8477.04 1433.08C8483.32 1432.78 8487.77 1432.04 8489.91 1430.94C8491.7 1430.01 8494.05 1429.48 8495.13 1429.76C8496.21 1430.04 8500.32 1428.92 8504.26 1427.26C8508.21 1425.6 8513.62 1423.41 8516.28 1422.39C8518.95 1421.36 8522.2 1419.82 8523.5 1418.97C8524.8 1418.12 8526.55 1417.42 8527.38 1417.42C8531.21 1417.42 8551.5 1405.72 8552.59 1402.88C8552.87 1402.15 8556.19 1399.2 8559.97 1396.32C8563.75 1393.45 8567.08 1390.49 8572.94 1384.63C8572.94 1383.62 8574.29 1381.5 8575.94 1379.92C8577.59 1378.34 8578.94 1376.37 8578.94 1375.54C8578.94 1374.71 8580.12 1372.8 8581.56 1371.29C8585.43 1367.25 8587.08 1364.19 8590.95 1353.92C8592.19 1350.62 8594.56 1345.22 8596.23 1341.92C8599.25 1335.94 8599.86 1333.7 8601.83 1321.42C8605.13 1300.86 8605.43 1296.68 8605.35 1271.92C8605.27 1247.88 8605.07 1244.98 8602.63 1233.36C8595.98 1201.61 8583.8 1176.89 8565.15 1157.3C8533 1123.51 8496.44 1107.94 8453.44 1109.74C8424.65 1110.94 8405.49 1117.1 8382.27 1132.62C8356.7 1149.72 8335.93 1175.5 8324.82 1203.91C8322.86 1208.92 8321.58 1210.91 8320.31 1210.91C8318.27 1210.92 8316.63 1216.4 8317.49 1220.27C8317.78 1221.56 8317.11 1227.18 8316 1232.77C8313.19 1246.86 8311.8 1271.99 8312.91 1288.54C8314 1304.84 8316.73 1318.42 8321.59 1331.86C8324.1 1338.77 8325.27 1343.74 8325.34 1347.75C8325.41 1351.84 8325.91 1353.92 8327.03 1354.75C8327.91 1355.39 8329.34 1357.3 8330.22 1358.99C8331.09 1360.68 8332.51 1362.65 8333.37 1363.37C8334.23 1364.08 8334.94 1365.68 8334.94 1366.93C8334.94 1368.24 8335.99 1369.88 8337.44 1370.83C8338.81 1371.73 8339.94 1373.17 8339.94 1374.04C8339.94 1375.67 8342.66 1379.65 8346.91 1384.25C8348.27 1385.72 8349.39 1387.6 8349.41 1388.42C8349.42 1389.25 8350.35 1390.05 8351.47 1390.21C8352.59 1390.37 8356.56 1393.41 8360.29 1396.96C8364.02 1400.51 8367.43 1403.42 8367.86 1403.42C8368.29 1403.42 8370.71 1405 8373.23 1406.92C8375.75 1408.85 8378.23 1410.42 8378.73 1410.42C8379.24 1410.42 8381.76 1412.27 8384.33 1414.54C8388.67 1418.36 8389.14 1418.54 8390.78 1417.07C8392.4 1415.59 8392.81 1415.69 8396.05 1418.37C8397.98 1419.96 8401.33 1421.59 8403.5 1421.98C8405.66 1422.38 8408.32 1423.32 8409.41 1424.06C8410.49 1424.81 8412.29 1425.44 8413.41 1425.45C8414.52 1425.47 8416.31 1426.15 8417.38 1426.95C8418.44 1427.76 8420.36 1428.42 8421.64 1428.42C8422.92 1428.42 8424.74 1428.83 8425.7 1429.33C8427.58 1430.32 8439 1431.99 8450.94 1433.02C8455.06 1433.38 8459.34 1434.04 8460.44 1434.48C8463.19 1435.6 8465.36 1435.6 8466.49 1434.48Z" fill="#815A44" stroke="#815A44"/>
<path d="M8287.13 1587.29C8284.22 1585.59 8282.01 1584.02 8282.23 1583.8C8282.92 1583.11 8290.04 1586.44 8292.23 1588.48C8295.26 1591.31 8293.2 1590.82 8287.13 1587.29Z" fill="#815A44" stroke="#815A44"/>
<path d="M8317.61 1221.03C8316.77 1218.83 8317.86 1211.58 8319.16 1210.79C8321.44 1209.38 8321.86 1212.29 8320.12 1217.41C8318.77 1221.38 8318.11 1222.33 8317.61 1221.03Z" fill="#815A44" stroke="#815A44"/>
<path d="M6861.89 2122.87C6860.81 2121.57 6860.95 2120.96 6866.46 2122.39C6864.26 2124.83 6863.58 2124.9 6861.89 2122.87Z" fill="#815A44" stroke="#815A44"/>
<path d="M6171.65 1395.97C6170.71 1391.4 6169.94 1387.15 6169.94 1386.54C6169.94 1384.63 6171.8 1385.31 6173.08 1387.67C6174.49 1390.3 6175.35 1403.05 6174.17 1403.78C6173.72 1404.05 6172.59 1400.54 6171.65 1395.97Z" fill="#815A44" stroke="#815A44"/>
<path d="M6450.83 1935.67C6441.82 1926.44 6430.15 1914.13 6424.91 1908.32C6415.78 1898.2 6377.94 1852.09 6377.94 1851.09C6377.94 1850.82 6379.74 1851.47 6381.94 1852.54C6384.14 1853.6 6385.94 1855.12 6389.94 1860.77C6389.94 1861.48 6391.51 1863.45 6393.44 1865.15C6395.36 1866.86 6396.94 1868.94 6396.94 1869.78C6396.94 1870.62 6398.96 1873.21 6401.44 1875.53C6403.91 1877.85 6405.94 1880.22 6405.94 1880.8C6405.94 1881.38 6407.9 1883.89 6410.29 1886.39C6415.3 1891.6 6427.94 1907.96 6427.94 1909.23C6427.94 1909.7 6432.66 1914.63 6438.44 1920.19C6444.21 1925.75 6448.94 1930.68 6448.94 1931.15C6448.94 1932.4 6458.34 1941.44 6461.05 1942.79C6462.34 1943.44 6463.87 1944.92 6464.46 1946.09C6465.04 1947.25 6466.12 1948.94 6466.87 1949.84C6467.61 1950.74 6468 1951.69 6467.73 1951.96C6467.45 1952.24 6459.85 1944.9 6450.83 1935.67Z" fill="#815A44" stroke="#815A44"/>
<path d="M6847.42 2109.39C6847.03 2108.76 6847.18 2107.78 6847.76 2107.2C6849.1 2105.86 6852.23 2107.03 6851.69 2108.67C6851.13 2110.34 6848.3 2110.82 6847.42 2109.39Z" fill="#815A44" stroke="#815A44"/>
<path d="M6367.01 1837.08C6363.12 1831.84 6359.94 1827.3 6359.94 1826.99C6359.94 1825.31 6363.13 1826.8 6364.59 1829.17C6365.53 1830.68 6367.72 1833.5 6369.46 1835.42C6372.71 1839.01 6375.65 1845.04 6374.64 1846.05C6374.33 1846.36 6370.89 1842.33 6367.01 1837.08Z" fill="#815A44" stroke="#815A44"/>
<path d="M6166.6 1367.17C6163.94 1350.59 6160.94 1328.6 6160.94 1325.72C6160.94 1324.33 6161.22 1324.37 6163.02 1325.99C6164.51 1327.34 6164.94 1328.64 6164.56 1330.56C6164.22 1332.23 6164.56 1333.69 6165.45 1334.43C6166.47 1335.28 6166.7 1336.84 6166.27 1340C6165.91 1342.64 6166.11 1344.93 6166.78 1345.73C6167.39 1346.46 6167.89 1348.38 6167.89 1349.99C6167.89 1351.6 6167.96 1353.82 6168.03 1354.92C6168.1 1356.02 6168.1 1358.05 6168.02 1359.42C6167.82 1362.71 6168.5 1371.6 6169.44 1378.17C6169.86 1381.06 6169.97 1383.42 6169.7 1383.42C6169.43 1383.42 6168.03 1376.11 6166.6 1367.17Z" fill="#815A44" stroke="#815A44"/>
<path d="M8234.01 1605.64C8233.91 1603.83 8236.85 1597.01 8237.47 1597.62C8237.75 1597.9 8237.1 1600.11 8236.03 1602.53C8234.95 1604.94 8234.05 1606.34 8234.01 1605.64Z" fill="#815A44" stroke="#815A44"/>
<path d="M6829.44 2117.43C6828.69 2116.21 6833.86 2111.23 6834.44 2117.42C6831.14 2118.68 6830.21 2118.68 6829.44 2117.43Z" fill="#815A44" stroke="#815A44"/>
<path d="M8224.46 1626.24C8223.32 1621.92 8225.65 1616.42 8228.63 1616.42C8230.22 1616.42 8229.9 1618.03 8226.91 1624.92C8225.17 1628.91 8225.17 1628.91 8224.46 1626.24Z" fill="#815A44" stroke="#815A44"/>
<path d="M7469.94 706.724C7442.99 705.509 7414.61 698.257 7391.48 686.676C7359.83 670.821 7331.13 644.022 7313.21 613.589C7300.87 592.615 7289.47 561.529 7287.4 543.182C7286.03 531.003 7285.95 525.796 7287.1 523.628C7288.17 521.614 7288 521.04 7285.73 518.928C7283.41 516.784 7283.06 515.507 7282.47 507.222C7282.1 502.107 7281.96 429.072 7282.14 344.922L7282.48 191.922L7285.22 177.422C7290.41 150.019 7296.82 130.916 7308.68 107.562C7320.37 84.5229 7330.5 70.9129 7350.07 51.921C7375.31 27.42 7407.94 10.4649 7443.44 3.40093C7457.25 0.650934 7485.24 -0.389096 7498.44 1.3579C7510.25 2.9219 7525.33 6.58995 7538.12 11.007C7562.41 19.402 7592.11 38.9579 7610.31 58.5469C7641.49 92.1079 7659.26 130.596 7669.12 185.922L7671.44 198.922V358.422C7671.44 506.98 7671.31 518.686 7669.64 529.061C7660.73 584.445 7637.03 629.396 7600.59 660.057C7565.1 689.915 7527.78 704.635 7482.44 706.659C7478.59 706.831 7472.96 706.86 7469.94 706.724Z" fill="#815A44" stroke="#815A44"/>
<path d="M6928.2 698.88C6917.39 695.685 6900.84 689.098 6893.94 685.252C6885.86 680.748 6873.94 673.288 6873.94 672.737C6873.94 672.237 6879.54 675.472 6884.08 678.589C6887.72 681.094 6905.26 689.674 6911.94 692.224C6914.96 693.378 6922.39 695.881 6928.44 697.785C6934.49 699.689 6938.76 701.262 6937.94 701.281C6937.11 701.3 6932.73 700.22 6928.2 698.88Z" fill="#815A44" stroke="#815A44"/>
<path d="M6963.82 705.995C6963.48 705.642 6958.75 704.645 6953.32 703.778C6943.59 702.227 6920.64 695.704 6910.02 691.475C6882.17 680.389 6855.14 660.542 6836.21 637.285C6826.28 625.089 6815.15 607.504 6809.17 594.549C6807.25 590.39 6804.85 585.848 6803.84 584.455C6799.05 577.837 6791.96 548.803 6789.87 527.258C6788.2 510.024 6789.23 428.594 6791.25 417.922C6793.65 405.268 6795.63 397.665 6799.31 386.922C6804.83 370.778 6812.71 353.167 6814.04 353.989C6814.49 354.268 6816.06 352.117 6817.53 349.209C6818.99 346.301 6821.03 342.728 6822.06 341.268C6823.09 339.808 6823.94 337.864 6823.94 336.948C6823.94 335.096 6828.19 328.523 6834.3 320.922C6846.23 306.093 6880.31 275.487 6884.95 275.438C6885.78 275.429 6888.48 274.286 6890.95 272.899C6893.42 271.512 6901.06 267.629 6907.94 264.272C6914.81 260.915 6920.66 257.842 6920.94 257.443C6922.45 255.255 6946.71 249.027 6960.16 247.375C6974.75 245.583 7004.66 246.607 7018.44 249.369C7042.85 254.265 7068.64 264.93 7085.84 277.246C7130.45 309.189 7160.34 357.094 7171.1 413.922C7172.96 423.744 7173.24 429.74 7173.65 469.922C7174.16 518.795 7173.58 529.135 7169.29 548.422C7165.5 565.425 7160.68 579.335 7153.53 593.922C7142.21 617.001 7128.57 635.824 7110.76 652.956C7083.4 679.277 7053.85 695.125 7017.44 703.016C7007.47 705.174 7001.95 705.702 6984.94 706.126C6973.66 706.407 6964.16 706.348 6963.82 705.995ZM6819.65 587.765C6820.15 586.291 6816.83 582.711 6814.3 581.978C6812.59 581.483 6812.04 581.884 6811.51 583.987C6810.62 587.544 6812.5 589.583 6816.28 589.152C6817.94 588.962 6819.46 588.337 6819.65 587.765ZM6826.6 353.855C6826.93 352.993 6826.66 351.756 6821.94 354.613C6821.94 356.102 6825.99 355.443 6826.6 353.855Z" fill="#815A44" stroke="#815A44"/>
<path d="M6834.27 636.172C6825.87 627.235 6809.87 600.979 6805.03 588.172C6802.85 582.418 6805.11 585.767 6808.81 593.769C6812.27 601.26 6817.41 610.318 6824.79 621.922C6826.19 624.122 6829.74 628.959 6832.68 632.672C6838.49 640.017 6839.06 641.265 6834.27 636.172Z" fill="#815A44" stroke="#815A44"/>
<path d="M6821.94 354.613C6821.94 354.168 6822.58 352.931 6823.37 351.863C6824.47 350.365 6825.07 350.193 6826 351.105C6827.67 352.752 6826.41 355.422 6823.97 355.422C6822.85 355.422 6821.94 355.058 6821.94 354.613Z" fill="#815A44" stroke="#815A44"/>
<path d="M7284.6 525.567C7283.73 518.52 7284.17 517.232 7286.64 519.702C7287.99 521.051 7288.09 521.791 7287.16 523.642C7286.52 524.896 7285.87 527.272 7285.7 528.922C7285.5 530.859 7285.11 529.671 7284.6 525.567Z" fill="#815A44" stroke="#815A44"/>
<path d="M6813.94 353.26C6813.94 351.335 6823.29 335.994 6823.71 337.239C6823.92 337.874 6823.22 339.636 6822.14 341.157C6821.07 342.678 6819 346.285 6817.55 349.172C6814.92 354.379 6813.94 355.497 6813.94 353.26Z" fill="#815A44" stroke="#815A44"/>
<path d="M6884.94 275.053C6884.94 274.164 6902.16 264.824 6910.73 261.062C6923.75 255.354 6922.73 256.908 6909.15 263.491C6902.39 266.766 6895.19 270.5 6893.15 271.788C6889.33 274.198 6884.94 275.944 6884.94 275.053Z" fill="#815A44" stroke="#815A44"/>
<path d="M6812.05 588.056C6811.35 587.215 6811.13 585.519 6811.51 583.987C6812.04 581.884 6812.59 581.483 6814.3 581.978C6816.84 582.711 6820.15 586.291 6819.66 587.765C6819.1 589.444 6813.38 589.663 6812.05 588.056Z" fill="#815A44" stroke="#815A44"/>
</svg>
